<?xml version="1.0" encoding="UTF-8"?> <!-- Generator: Adobe Illustrator 16.0.0, SVG Export Plug-In . SVG Version: 6.00 Build 0) --> <svg xmlns="http://www.w3.org/2000/svg" xmlns:xlink="http://www.w3.org/1999/xlink" id="Layer_1" x="0px" y="0px" width="30.077px" height="38.86px" viewBox="0 0 30.077 38.86" xml:space="preserve"> <g> <path fill="#C1A426" d="M15.875,38.86c-0.026-0.026-0.049-0.055-0.077-0.076c-0.411-0.314-0.452-0.669-0.109-1.063 c0.323-0.375,0.662-0.734,0.981-1.11c2.046-2.398,3.454-5.129,4.223-8.185c0.292-1.154,0.512-2.323,0.544-3.516 c0.037-1.481,0.105-2.966,0.049-4.442c-0.098-2.665-1.918-4.941-4.546-5.61c-3.464-0.882-6.825,1.299-7.507,4.772 c-0.065,0.333-0.089,0.678-0.094,1.018c-0.016,0.772-0.015,1.547-0.005,2.319c0.025,2.227-0.712,4.165-2.212,5.808 c-0.484,0.533-0.964,1.075-1.451,1.61c-0.093,0.103-0.188,0.206-0.301,0.285c-0.262,0.185-0.583,0.151-0.798-0.066 c-0.199-0.2-0.24-0.517-0.085-0.768c0.073-0.12,0.167-0.221,0.259-0.325c0.597-0.676,1.213-1.331,1.787-2.021 c0.812-0.976,1.307-2.103,1.444-3.367c0.059-0.552,0.056-1.111,0.075-1.668c0.025-0.884-0.016-1.777,0.084-2.653 c0.231-1.993,1.19-3.604,2.754-4.852c1.117-0.892,2.403-1.41,3.818-1.534c2.087-0.18,3.952,0.408,5.544,1.793 c1.226,1.064,2.011,2.399,2.352,3.979c0.117,0.539,0.157,1.1,0.175,1.658c0.028,0.886,0.016,1.773,0.007,2.659 c-0.037,4.407-1.272,8.447-3.738,12.103c-0.712,1.052-1.536,2.015-2.395,2.941c-0.101,0.11-0.212,0.208-0.318,0.31H15.875z"></path> <path fill="#C1A426" d="M12.226,38.86c-0.056-0.047-0.115-0.094-0.17-0.143c-0.255-0.229-0.304-0.564-0.114-0.854 c0.067-0.106,0.161-0.195,0.244-0.29c0.957-1.082,1.933-2.144,2.861-3.25c0.463-0.551,0.863-1.159,1.238-1.771 c0.784-1.277,1.383-2.641,1.802-4.08c0.236-0.812,0.413-1.639,0.535-2.48c0.246-1.687,0.197-3.384,0.197-5.079 c-0.002-0.898-0.249-1.72-0.866-2.406c-0.545-0.605-1.209-0.974-2.017-1.104c-0.811-0.131-1.565,0.017-2.257,0.44 c-0.939,0.575-1.526,1.407-1.606,2.52c-0.063,0.869-0.057,1.743-0.061,2.617c-0.005,0.915-0.078,1.817-0.289,2.708 c-0.394,1.672-1.134,3.163-2.247,4.463c-0.684,0.799-1.396,1.573-2.102,2.353c-0.099,0.108-0.228,0.209-0.361,0.263 c-0.249,0.097-0.518,0.002-0.68-0.202c-0.159-0.198-0.186-0.481-0.042-0.709c0.094-0.148,0.216-0.279,0.333-0.413 c0.638-0.72,1.293-1.428,1.917-2.16c1.108-1.301,1.792-2.81,2.065-4.492c0.096-0.596,0.103-1.208,0.124-1.814 c0.028-0.874-0.023-1.751,0.055-2.619c0.172-1.936,1.207-3.283,3.004-3.977c2.766-1.068,5.8,0.739,6.249,3.673 c0.039,0.264,0.045,0.53,0.045,0.799c-0.001,1.113,0.002,2.228-0.021,3.343c-0.048,2.187-0.516,4.287-1.325,6.311 c-0.864,2.164-2.104,4.091-3.679,5.804c-0.626,0.679-1.243,1.371-1.866,2.053c-0.16,0.178-0.338,0.335-0.508,0.5H12.226z"></path> <path fill="#C1A426" d="M17.226,0.015c1.012,0.077,2.006,0.256,2.991,0.475c0.41,0.089,0.607,0.417,0.523,0.792 c-0.077,0.335-0.412,0.525-0.803,0.456c-0.695-0.123-1.389-0.257-2.089-0.37c-0.812-0.13-1.635-0.152-2.458-0.153 c-2.81-0.002-5.492,0.577-8.047,1.744C7.172,3.037,6.996,3.111,6.814,3.164C6.542,3.243,6.27,3.123,6.134,2.885 C5.996,2.646,6.037,2.3,6.235,2.116C6.309,2.047,6.396,1.99,6.486,1.948c1.813-0.863,3.712-1.458,5.697-1.77 c0.535-0.083,1.079-0.115,1.619-0.175C13.888-0.005,17.078,0.002,17.226,0.015"></path> <path fill="#C1A426" d="M17.422,22.467c-0.033,0.862-0.045,1.724-0.111,2.582c-0.079,1.022-0.286,2.026-0.577,3.009 c-0.363,1.215-0.858,2.376-1.492,3.477c-0.595,1.036-1.307,1.987-2.1,2.876c-0.82,0.917-1.651,1.821-2.481,2.729 c-0.093,0.1-0.194,0.201-0.309,0.276c-0.221,0.146-0.548,0.109-0.738-0.066c-0.202-0.184-0.267-0.485-0.14-0.727 c0.064-0.124,0.156-0.233,0.248-0.336c0.823-0.91,1.65-1.818,2.475-2.73c1.235-1.366,2.215-2.893,2.886-4.609 c0.43-1.095,0.723-2.227,0.889-3.397c0.221-1.593,0.118-3.188,0.138-4.781c0.006-0.431-0.28-0.704-0.677-0.715 c-0.413-0.009-0.698,0.268-0.708,0.719c-0.014,0.532,0.004,1.063-0.007,1.595c-0.015,0.71-0.013,1.421-0.073,2.127 c-0.074,0.854-0.241,1.7-0.484,2.527c-0.441,1.479-1.1,2.857-2.025,4.093c-0.531,0.707-1.128,1.365-1.713,2.031 c-0.574,0.658-1.167,1.3-1.755,1.95c-0.085,0.091-0.171,0.186-0.271,0.262c-0.263,0.202-0.562,0.189-0.797-0.024 c-0.228-0.205-0.278-0.52-0.111-0.791c0.065-0.106,0.151-0.203,0.234-0.296c0.762-0.852,1.518-1.702,2.289-2.544 c1.08-1.177,1.963-2.478,2.551-3.968c0.359-0.908,0.607-1.843,0.742-2.813c0.184-1.324,0.124-2.654,0.141-3.982 c0.003-0.239,0.014-0.485,0.077-0.712c0.267-0.991,1.145-1.554,2.203-1.431c0.907,0.104,1.647,0.951,1.666,1.925 c0.014,0.583,0.004,1.162,0.004,1.746C17.404,22.466,17.413,22.467,17.422,22.467"></path> <path fill="#C1A426" d="M15.378,5.295c0.669,0.045,1.338,0.09,2.008,0.139c0.111,0.009,0.225,0.033,0.333,0.065 c0.313,0.098,0.482,0.379,0.434,0.709c-0.043,0.283-0.27,0.491-0.576,0.502c-0.204,0.008-0.407-0.004-0.608-0.026 c-1.885-0.213-3.741-0.056-5.556,0.482c-1.953,0.58-3.701,1.542-5.247,2.88c-1.199,1.04-2.2,2.239-2.995,3.606 c-0.82,1.409-1.393,2.917-1.663,4.528c-0.103,0.612-0.159,1.229-0.231,1.844c-0.044,0.386-0.242,0.629-0.561,0.661 c-0.427,0.047-0.736-0.263-0.715-0.726c0.015-0.316,0.048-0.632,0.083-0.947c0.246-2.109,0.883-4.096,1.946-5.936 c0.919-1.592,2.087-2.983,3.502-4.164c1.643-1.373,3.488-2.369,5.541-2.973C12.474,5.529,13.91,5.308,15.378,5.295"></path> <path fill="#C1A426" d="M28.168,22.024c0,0.405,0.004,0.81-0.004,1.216c-0.001,0.15-0.014,0.303-0.054,0.448 c-0.081,0.304-0.343,0.461-0.665,0.43c-0.294-0.029-0.507-0.24-0.541-0.543c-0.013-0.111-0.01-0.226-0.01-0.34 c-0.001-0.658,0.003-1.316-0.001-1.976c-0.007-1.218-0.108-2.421-0.442-3.601c-0.351-1.24-0.888-2.393-1.62-3.447 c-0.972-1.39-2.186-2.519-3.654-3.37c-1.249-0.724-2.581-1.206-4.01-1.418c-0.729-0.109-1.459-0.152-2.195-0.14 c-0.101,0.001-0.204,0.005-0.304-0.007c-0.297-0.036-0.515-0.26-0.542-0.544c-0.03-0.304,0.115-0.56,0.397-0.658 c0.129-0.043,0.272-0.065,0.409-0.069c2.308-0.058,4.496,0.426,6.528,1.528c1.624,0.879,2.997,2.061,4.112,3.539 c1.177,1.561,1.947,3.297,2.341,5.209c0.184,0.897,0.22,1.807,0.251,2.715C28.178,21.34,28.168,21.682,28.168,22.024"></path> <path fill="#C1A426" d="M15.483,2.608c4.267,0.074,8.105,1.419,11.436,4.152c0.488,0.4,0.941,0.848,1.404,1.277 c0.098,0.094,0.188,0.207,0.257,0.325c0.128,0.224,0.076,0.513-0.101,0.703c-0.181,0.193-0.459,0.266-0.69,0.142 c-0.152-0.082-0.292-0.2-0.414-0.324c-1.08-1.081-2.275-2.012-3.6-2.771c-1.659-0.95-3.427-1.601-5.311-1.937 c-1.212-0.217-2.432-0.326-3.663-0.272c-1.026,0.046-2.041,0.173-3.044,0.39c-0.11,0.023-0.223,0.045-0.335,0.047 c-0.335,0.007-0.58-0.178-0.642-0.472c-0.069-0.323,0.071-0.62,0.396-0.727c0.309-0.103,0.634-0.168,0.956-0.225 C13.232,2.723,14.34,2.63,15.483,2.608"></path> <path fill="#C1A426" d="M2.026,26.081c-0.415,0.017-0.776-0.455-0.597-0.838c0.053-0.113,0.125-0.221,0.205-0.316 c0.18-0.214,0.365-0.423,0.559-0.622c0.323-0.337,0.488-0.722,0.473-1.197c-0.019-0.557-0.001-1.115-0.005-1.673 c-0.005-1.015,0.044-2.026,0.229-3.024c0.23-1.236,0.638-2.418,1.221-3.533c0.524-1.004,1.176-1.919,1.937-2.758 c0.169-0.188,0.359-0.329,0.622-0.304c0.452,0.044,0.704,0.538,0.474,0.939c-0.094,0.165-0.223,0.309-0.348,0.45 c-1.088,1.232-1.865,2.639-2.346,4.208c-0.24,0.788-0.418,1.591-0.445,2.417c-0.035,1.088-0.062,2.175-0.061,3.267 c0.003,0.744-0.222,1.39-0.707,1.948c-0.225,0.258-0.455,0.511-0.688,0.762C2.409,25.959,2.244,26.074,2.026,26.081"></path> <path fill="#C1A426" d="M25.492,22.467c-0.04,1.024-0.069,2.05-0.125,3.074c-0.021,0.438-0.081,0.883-0.146,1.319 c-0.041,0.262-0.225,0.419-0.478,0.487c-0.229,0.062-0.423-0.026-0.585-0.182c-0.162-0.154-0.181-0.357-0.164-0.564 c0.029-0.392,0.078-0.778,0.101-1.17c0.036-0.645,0.076-1.291,0.083-1.935c0.009-1.064,0.014-2.127-0.018-3.19 c-0.044-1.484-0.493-2.855-1.259-4.121c-0.401-0.665-0.887-1.265-1.448-1.8c-0.064-0.062-0.127-0.125-0.185-0.191 c-0.255-0.301-0.265-0.634-0.02-0.887c0.252-0.266,0.612-0.275,0.916,0.002c0.26,0.238,0.516,0.49,0.748,0.755 c1.177,1.338,1.96,2.876,2.332,4.62c0.155,0.733,0.226,1.474,0.215,2.225c-0.007,0.519-0.001,1.038-0.001,1.557 C25.472,22.467,25.481,22.467,25.492,22.467"></path> <path fill="#C1A426" d="M5.384,20.315c0.076-1.754,0.572-3.381,1.501-4.871c1.068-1.709,2.523-2.984,4.351-3.836 c0.829-0.386,1.7-0.641,2.602-0.788c0.146-0.024,0.307-0.017,0.45,0.022c0.24,0.065,0.413,0.333,0.412,0.58 c-0.001,0.256-0.158,0.499-0.411,0.584c-0.19,0.065-0.392,0.096-0.589,0.139c-3.115,0.684-5.261,2.527-6.473,5.457 c-0.354,0.855-0.541,1.761-0.563,2.695c-0.005,0.2-0.024,0.404-0.067,0.601c-0.066,0.307-0.336,0.493-0.643,0.472 c-0.308-0.021-0.538-0.245-0.567-0.563C5.372,20.644,5.384,20.478,5.384,20.315"></path> <path fill="#C1A426" d="M9.358,4.519C9.355,4.813,9.262,5,9.057,5.115C8.882,5.213,8.699,5.303,8.516,5.386 C6.11,6.468,4.075,8.036,2.397,10.07c-0.112,0.135-0.229,0.272-0.362,0.387c-0.221,0.189-0.55,0.195-0.77,0.03 c-0.24-0.178-0.318-0.5-0.183-0.783c0.039-0.077,0.09-0.152,0.146-0.221C2.98,7.296,5.119,5.594,7.643,4.376 C7.917,4.245,8.19,4.112,8.475,4.008C8.933,3.841,9.356,4.124,9.358,4.519"></path> <path fill="#C1A426" d="M26.332,10.12c0.222-0.015,0.384,0.124,0.529,0.287c0.71,0.779,1.328,1.625,1.865,2.531 c0.506,0.862,0.922,1.767,1.255,2.71c0.067,0.188,0.146,0.376,0.054,0.586c-0.103,0.241-0.267,0.395-0.532,0.421 c-0.267,0.026-0.471-0.083-0.603-0.312c-0.073-0.128-0.123-0.275-0.173-0.417c-0.604-1.658-1.482-3.151-2.646-4.477 c-0.108-0.123-0.22-0.248-0.305-0.386C25.521,10.638,25.818,10.121,26.332,10.12"></path> <path fill="#C1A426" d="M6.612,23.576c-0.067,1.147-0.459,2.172-1.2,3.05c-0.531,0.628-1.088,1.232-1.637,1.846 c-0.156,0.174-0.339,0.3-0.59,0.288c-0.457-0.017-0.742-0.496-0.525-0.899c0.064-0.12,0.16-0.226,0.251-0.332 c0.554-0.64,1.131-1.261,1.661-1.92c0.459-0.575,0.703-1.251,0.75-1.989c0.011-0.163,0.037-0.326,0.067-0.489 c0.059-0.306,0.318-0.524,0.607-0.528c0.311-0.001,0.574,0.231,0.615,0.562C6.626,23.298,6.612,23.439,6.612,23.576"></path> <path fill="#C1A426" d="M20.255,6.107c0.06,0.017,0.16,0.036,0.253,0.07c1.45,0.517,2.786,1.236,4.039,2.126 c0.442,0.317,0.412,0.942-0.047,1.144c-0.186,0.08-0.367,0.091-0.546-0.014c-0.129-0.078-0.256-0.157-0.382-0.246 c-1.011-0.723-2.104-1.294-3.268-1.728c-0.164-0.062-0.334-0.129-0.479-0.223c-0.232-0.151-0.31-0.438-0.222-0.706 C19.688,6.279,19.946,6.099,20.255,6.107"></path> <path fill="#C1A426" d="M8.617,11.419c-0.387-0.007-0.582-0.142-0.679-0.404c-0.099-0.263-0.042-0.529,0.203-0.709 c0.303-0.226,0.622-0.438,0.952-0.622c0.872-0.49,1.782-0.896,2.747-1.163c0.142-0.04,0.303-0.067,0.442-0.038 c0.252,0.053,0.418,0.227,0.469,0.489c0.05,0.259-0.062,0.51-0.294,0.646c-0.108,0.064-0.23,0.106-0.349,0.144 c-1.092,0.34-2.116,0.822-3.069,1.454C8.886,11.321,8.705,11.379,8.617,11.419"></path> <path fill="#C1A426" d="M22.563,32.084c0.017-0.061,0.045-0.187,0.083-0.306c0.251-0.767,0.503-1.533,0.755-2.301 c0.031-0.095,0.061-0.194,0.106-0.282c0.146-0.275,0.428-0.406,0.695-0.334c0.297,0.078,0.495,0.334,0.486,0.644 c-0.005,0.074-0.014,0.151-0.036,0.222c-0.281,0.863-0.565,1.728-0.852,2.59c-0.093,0.274-0.267,0.459-0.57,0.478 C22.842,32.824,22.552,32.54,22.563,32.084"></path> <path fill="#C1A426" d="M16.837,10.77c0.465,0.111,0.938,0.196,1.396,0.336c0.479,0.148,0.944,0.342,1.413,0.529 c0.268,0.107,0.428,0.306,0.421,0.612c-0.004,0.374-0.29,0.65-0.663,0.604c-0.172-0.02-0.341-0.087-0.503-0.158 c-0.649-0.289-1.324-0.482-2.024-0.6c-0.087-0.017-0.173-0.036-0.256-0.064c-0.346-0.112-0.553-0.406-0.479-0.709 C16.219,10.974,16.476,10.776,16.837,10.77"></path> <path fill="#C1A426" d="M22.957,1.376c0.055,0.015,0.167,0.035,0.268,0.081c0.596,0.272,1.19,0.547,1.785,0.825 c0.088,0.043,0.178,0.1,0.25,0.167c0.197,0.178,0.248,0.449,0.151,0.694c-0.102,0.247-0.325,0.401-0.599,0.378 c-0.134-0.012-0.271-0.06-0.396-0.116c-0.551-0.248-1.1-0.504-1.649-0.759c-0.087-0.042-0.183-0.087-0.265-0.146 c-0.247-0.177-0.334-0.458-0.23-0.736C22.361,1.516,22.611,1.36,22.957,1.376"></path> </g> </svg> 