<?xml version="1.0" encoding="UTF-8"?> <!-- Generator: Adobe Illustrator 16.0.0, SVG Export Plug-In . SVG Version: 6.00 Build 0) --> <svg xmlns="http://www.w3.org/2000/svg" xmlns:xlink="http://www.w3.org/1999/xlink" id="Layer_1" x="0px" y="0px" width="39.636px" height="43.642px" viewBox="0 0 39.636 43.642" xml:space="preserve"> <g> <defs> <rect id="SVGID_1_" width="39.636" height="43.642"></rect> </defs> <clipPath id="SVGID_2_"> <use xlink:href="#SVGID_1_" overflow="visible"></use> </clipPath> <path clip-path="url(#SVGID_2_)" fill="#C1A426" d="M34.848,39.542V25.286c1.328,2.086,2.284,4.273,2.986,6.568 C38.761,34.885,38.376,37.502,34.848,39.542 M34.547,42.557c0,0.147-0.125,0.268-0.278,0.268H5.298 c-0.152,0-0.277-0.12-0.277-0.268v-0.814c0-0.147,0.125-0.268,0.277-0.268h28.971c0.153,0,0.278,0.12,0.278,0.268V42.557z M4.788,39.542c-3.528-2.04-3.912-4.657-2.986-7.688c0.702-2.295,1.658-4.482,2.986-6.568V39.542z M5.893,24.624 c0-0.605,0.512-1.102,1.138-1.102h12.788h12.787c0.625,0,1.139,0.496,1.139,1.102V39.22c0,0.606-0.514,1.103-1.139,1.103H19.818 H7.031c-0.626,0-1.138-0.496-1.138-1.103V24.624z M10.929,21.199c0.604,0.454,1.04,0.782,1.647,1.238H8.288 C9.301,21.963,10.063,21.604,10.929,21.199 M8.29,16.753c1.418-0.744,2.725-1.43,4.226-2.218c0.829,2.804,1.341,5.54,3.361,7.937 c-0.583-0.05-0.984,0.033-1.21-0.123C12.393,20.778,10.231,19.079,8.29,16.753 M12.353,5.136c1.868-2.488,4.284-3.908,7.465-3.848 c3.181-0.06,5.597,1.36,7.466,3.848c3.109,4.245,3.806,9.664,3.847,9.801c-0.118-0.062-0.237-0.123-0.356-0.184 c-3.651-1.481-7.301-2.168-10.956-2.152c-3.656-0.016-7.305,0.671-10.957,2.152c-0.119,0.061-0.238,0.122-0.357,0.184 C8.546,14.8,9.243,9.381,12.353,5.136 M21.68,22.535h-1.812h-0.05h-0.051h-1.812c-2.575-1.943-3.368-4.719-3.913-7.955 c1.946,1.188,3.549,1.188,4.87-0.59h0.905h0.904c1.321,1.778,2.924,1.778,4.871,0.59C25.048,17.816,24.255,20.592,21.68,22.535 M24.969,22.349c-0.225,0.156-0.626,0.073-1.209,0.123c2.02-2.397,2.531-5.133,3.361-7.937c1.501,0.788,2.807,1.474,4.225,2.218 C29.405,19.079,27.244,20.778,24.969,22.349 M31.349,22.437H27.06c0.607-0.456,1.044-0.784,1.648-1.238 C29.573,21.604,30.336,21.963,31.349,22.437 M39.461,32.988c-0.58-2.68-1.644-5.178-2.784-7.659 c-0.864-1.878-2.565-2.872-4.283-3.848c-0.659-0.375-1.7-0.808-2.46-1.183c0.903-0.845,2.106-1.934,2.869-3.426 c-0.112-3.179-0.966-6.501-2.578-9.648c-1.031-2.015-2.306-3.828-4.14-5.275C24.408,0.625,22.133-0.028,19.818,0 c-2.314-0.029-4.59,0.625-6.268,1.948c-1.834,1.447-3.107,3.26-4.14,5.275c-1.612,3.147-2.466,6.469-2.578,9.648 c0.763,1.492,1.966,2.581,2.869,3.426c-0.759,0.375-1.8,0.808-2.46,1.183c-1.716,0.976-3.419,1.97-4.283,3.848 c-1.14,2.481-2.204,4.979-2.784,7.659c-0.437,2.023-0.075,3.821,1.302,5.384c0.816,0.926,1.73,1.772,2.683,2.737v2.166 c0,0.047,0.011,0.091,0.027,0.132c0.056,0.137,0.192,0.235,0.352,0.235h15.279h15.278c0.161,0,0.297-0.099,0.353-0.235 c0.017-0.041,0.027-0.085,0.027-0.132v-2.166c0.953-0.965,1.866-1.812,2.683-2.737C39.536,36.809,39.897,35.011,39.461,32.988"></path> </g> </svg> 