<?xml version="1.0" encoding="UTF-8"?> <!-- Generator: Adobe Illustrator 16.0.0, SVG Export Plug-In . SVG Version: 6.00 Build 0) --> <svg xmlns="http://www.w3.org/2000/svg" xmlns:xlink="http://www.w3.org/1999/xlink" id="Layer_1" x="0px" y="0px" width="44.201px" height="39.904px" viewBox="0 0 44.201 39.904" xml:space="preserve"> <g> <defs> <rect id="SVGID_1_" width="44.202" height="39.904"></rect> </defs> <clipPath id="SVGID_2_"> <use xlink:href="#SVGID_1_" overflow="visible"></use> </clipPath> <path clip-path="url(#SVGID_2_)" fill="#C1A426" d="M33.625,38.09c-2.666,0-5.055-1.201-6.666-3.094 c-0.468-0.55-0.87-1.158-1.193-1.812c-0.583-1.181-0.914-2.507-0.914-3.912c0-1.795,0.538-3.466,1.458-4.86 c0.333-0.506,0.717-0.976,1.145-1.401c1.586-1.58,3.768-2.559,6.171-2.559c0.45,0,0.892,0.035,1.323,0.101 c0.625,0.095,1.228,0.259,1.803,0.48c3.298,1.27,5.647,4.483,5.647,8.239C42.398,34.135,38.463,38.09,33.625,38.09 M6.531,33.184 c0.033-6.537,5.333-11.846,11.844-11.846c2.401,0,4.636,0.723,6.504,1.96c-1.153,1.704-1.831,3.761-1.831,5.974 c0,1.381,0.265,2.701,0.742,3.912H6.531z M12.604,13.724c0-3.199,2.589-5.802,5.772-5.802c3.182,0,5.771,2.603,5.771,5.802 c0,3.199-2.589,5.802-5.771,5.802C15.193,19.526,12.604,16.923,12.604,13.724 M1.803,31.532V3.465c0-0.911,0.737-1.652,1.643-1.652 h29.858c0.906,0,1.644,0.741,1.644,1.652v15.258c-0.434-0.055-0.875-0.083-1.323-0.083c-2.98,0-5.677,1.247-7.602,3.249 c-1.093-0.746-2.299-1.337-3.586-1.742c2.109-1.353,3.513-3.725,3.513-6.422c0-4.199-3.398-7.615-7.574-7.615 c-4.177,0-7.575,3.416-7.575,7.615c0,2.697,1.403,5.069,3.513,6.422c-5.53,1.736-9.559,6.921-9.586,13.038H3.446 C2.54,33.184,1.803,32.443,1.803,31.532 M36.751,19.114V3.465c0-1.91-1.546-3.465-3.446-3.465H3.446C1.546,0,0,1.555,0,3.465 v28.067c0,1.911,1.546,3.465,3.446,3.465h21.27c1.883,2.949,5.173,4.907,8.909,4.907c5.832,0,10.576-4.769,10.576-10.632 C44.201,24.502,41.062,20.457,36.751,19.114"></path> <path clip-path="url(#SVGID_2_)" fill="#C1A426" d="M39.102,24.824c-0.282-0.227-0.736-0.209-1.015,0.049 c-0.099,0.09-0.182,0.198-0.26,0.305c-0.359,0.484-0.718,0.97-1.075,1.453c-0.603,0.812-1.203,1.624-1.805,2.437 c-0.765,1.034-1.529,2.067-2.296,3.102c-0.157,0.214-0.316,0.427-0.507,0.684c-0.047-0.054-0.09-0.103-0.132-0.149 c-0.09-0.101-0.173-0.193-0.248-0.289c-0.496-0.633-0.986-1.271-1.482-1.904c-0.189-0.242-0.378-0.487-0.572-0.727 c-0.081-0.098-0.162-0.196-0.246-0.291c-0.265-0.301-0.578-0.366-0.902-0.231c-0.498,0.207-0.645,0.784-0.3,1.261 c0.304,0.421,0.631,0.823,0.951,1.232c0.335,0.429,0.67,0.858,1.006,1.288c0.037,0.047,0.074,0.095,0.111,0.144 c0.088,0.11,0.175,0.223,0.263,0.335c0.381,0.487,0.766,0.979,1.154,1.477c0.136,0.174,0.271,0.347,0.407,0.522 c0.099-0.123,0.163-0.198,0.223-0.278c0.06-0.081,0.12-0.163,0.18-0.244c0.49-0.66,0.979-1.321,1.468-1.982 c0.3-0.404,0.601-0.81,0.9-1.215c0.609-0.821,1.218-1.645,1.827-2.467c0.804-1.087,1.609-2.174,2.414-3.261 c0.06-0.081,0.122-0.162,0.166-0.251C39.505,25.469,39.41,25.071,39.102,24.824"></path> </g> </svg> 