<?xml version="1.0" encoding="utf-8"?>
<!-- Generator: Adobe Illustrator 16.0.0, SVG Export Plug-In . SVG Version: 6.00 Build 0)  -->
<!DOCTYPE svg PUBLIC "-//W3C//DTD SVG 1.1//EN" "http://www.w3.org/Graphics/SVG/1.1/DTD/svg11.dtd">
<svg version="1.1" id="Layer_1" xmlns="http://www.w3.org/2000/svg" xmlns:xlink="http://www.w3.org/1999/xlink" x="0px" y="0px"
	 width="135.101px" height="43.431px" viewBox="0 0 135.101 43.431" enable-background="new 0 0 135.101 43.431"
	 xml:space="preserve">
<g>
	<defs>
		<rect id="SVGID_1_" y="0" width="135.101" height="43.431"/>
	</defs>
	<clipPath id="SVGID_2_">
		<use xlink:href="#SVGID_1_"  overflow="visible"/>
	</clipPath>
	<path clip-path="url(#SVGID_2_)" fill="#808285" d="M0.058,0.565H3.81c2.731,6.576,5.466,13.161,8.232,19.821
		c0.504-1.127,0.923-2.221,1.372-3.303c0.458-1.106,0.909-2.216,1.363-3.325c0.45-1.096,0.9-2.192,1.35-3.287
		c0.449-1.096,0.9-2.192,1.349-3.288c0.455-1.108,0.908-2.217,1.362-3.325c0.449-1.095,0.899-2.189,1.352-3.293h3.728
		c0.076,0.301,0.105,23.271,0.03,23.935h-2.416c-0.025-0.523-0.009-1.049-0.011-1.575c-0.003-0.532-0.001-1.064-0.001-1.597v-1.597
		v-1.597v-1.597V14.94v-1.557v-1.597v-1.597V8.592V6.995V5.398V3.819c-0.047-0.013-0.061-0.021-0.073-0.02
		c-0.011,0.001-0.027,0.01-0.031,0.02c-2.916,6.888-5.831,13.776-8.755,20.684h-1.33C8.417,17.599,5.495,10.677,2.572,3.754
		C2.55,3.758,2.527,3.762,2.505,3.767v20.689c-0.322,0.088-1.689,0.11-2.44,0.051C-0.015,24.217-0.026,0.973,0.058,0.565"/>
	<path clip-path="url(#SVGID_2_)" fill="#B2B4B6" d="M104.401,6.578c-0.177,0.376-0.342,0.736-0.514,1.093
		c-0.584,1.213-1.172,2.424-1.754,3.637c-0.329,0.685-0.642,1.377-0.977,2.058c-0.107,0.217-0.088,0.38,0.036,0.589
		c0.939,1.582,1.863,3.173,2.795,4.76c0.137,0.235,0.285,0.463,0.464,0.749c1.194-1.977,2.351-3.889,3.492-5.776
		C107.755,13.131,104.638,6.867,104.401,6.578 M99.479,16.891c-1.148,2.374-2.299,4.747-3.451,7.129h-3.119
		c0.024-0.095,0.032-0.169,0.063-0.234c0.52-1.082,1.04-2.163,1.562-3.244c0.829-1.717,1.657-3.433,2.485-5.151
		c0.457-0.948,0.91-1.899,1.367-2.848c1.082-2.246,2.166-4.491,3.249-6.737c0.463-0.96,0.923-1.922,1.383-2.884
		c0.397-0.83,0.792-1.661,1.189-2.49c0.062-0.129,0.134-0.253,0.229-0.432c0.095,0.17,0.168,0.292,0.231,0.42
		c0.9,1.831,1.8,3.662,2.697,5.494c0.71,1.449,1.416,2.9,2.124,4.35c0.75,1.533,1.501,3.065,2.251,4.599
		c0.673,1.377,1.343,2.757,2.016,4.134c0.755,1.546,1.513,3.09,2.267,4.636c0.057,0.116,0.093,0.241,0.149,0.392h-3.146
		c-1.162-2.381-2.325-4.762-3.522-7.215c-0.645,0.931-1.168,1.853-1.722,2.754c-0.56,0.909-1.116,1.82-1.677,2.728
		c-0.559,0.905-1.119,1.809-1.719,2.775c-0.476-0.698-0.83-1.394-1.228-2.062c-0.41-0.687-0.809-1.382-1.211-2.073
		c-0.397-0.68-0.795-1.359-1.19-2.039c-0.393-0.676-0.783-1.353-1.174-2.029C99.549,16.873,99.514,16.882,99.479,16.891"/>
	<path clip-path="url(#SVGID_2_)" fill="#808285" d="M53.281,22.335c0.093,0.013,0.145,0.027,0.196,0.026
		c1.954-0.02,3.909-0.014,5.863-0.07c1.597-0.047,3.109-0.474,4.521-1.218c3.168-1.667,4.792-4.332,5.114-7.806
		c0.095-1.008,0.007-2.018-0.229-3.01c-0.501-2.118-1.563-3.896-3.297-5.252c-1.951-1.526-4.21-2.225-6.676-2.274
		c-1.726-0.034-3.453-0.007-5.179-0.006c-0.103,0.001-0.205,0.02-0.313,0.031V22.335z M50.79,24.528V0.565
		c0.154-0.007,0.285-0.019,0.417-0.019c2.603-0.001,5.207-0.029,7.81,0.006c3.247,0.043,6.186,1.003,8.661,3.119
		C69.711,5.409,71,7.599,71.43,10.238c0.322,1.978,0.294,3.955-0.291,5.886c-0.82,2.708-2.489,4.803-4.896,6.327
		c-1.659,1.051-3.482,1.673-5.431,1.922c-0.732,0.094-1.475,0.143-2.214,0.148c-2.442,0.018-4.884,0.007-7.325,0.007H50.79z"/>
	<path clip-path="url(#SVGID_2_)" fill="#808285" d="M121.344,11.411c0.109,0.008,0.176,0.017,0.243,0.017
		c1.578,0.001,3.155,0.001,4.733,0c0.664,0,1.318-0.081,1.959-0.25c0.888-0.236,1.68-0.645,2.286-1.35
		c0.662-0.769,0.886-1.67,0.88-2.665c-0.011-1.587-0.748-2.707-2.153-3.423c-1.019-0.519-2.125-0.673-3.25-0.691
		c-1.456-0.023-2.913-0.006-4.369-0.005c-0.104,0-0.207,0.016-0.329,0.025V11.411z M121.384,13.455
		c-0.092,0.407-0.08,9.041,0.02,9.374h0.425c1.214,0,2.428,0.014,3.641-0.005c0.915-0.013,1.831-0.043,2.735-0.215
		c0.949-0.18,1.852-0.469,2.646-1.03c0.854-0.603,1.437-1.393,1.663-2.415c0.134-0.603,0.142-1.208,0.057-1.822
		c-0.198-1.442-0.941-2.486-2.26-3.141c-1.097-0.545-2.276-0.737-3.481-0.758c-1.699-0.031-3.398-0.008-5.099-0.007
		C121.612,13.436,121.494,13.448,121.384,13.455 M118.884,24.928V0.972c0.134-0.011,0.251-0.027,0.368-0.027
		c2.429-0.001,4.858-0.019,7.287,0.005c1.521,0.016,3.008,0.259,4.378,0.965c1.405,0.725,2.391,1.809,2.797,3.34
		c0.327,1.234,0.359,2.48-0.114,3.688c-0.623,1.593-1.809,2.608-3.443,3.13c-0.15,0.048-0.301,0.092-0.45,0.197
		c0.214,0.039,0.429,0.072,0.642,0.119c1.633,0.36,2.971,1.163,3.897,2.565c0.45,0.681,0.693,1.441,0.787,2.241
		c0.12,1.037,0.108,2.072-0.246,3.075c-0.559,1.575-1.643,2.695-3.12,3.46c-1.085,0.562-2.249,0.88-3.46,1.045
		c-0.951,0.129-1.906,0.157-2.864,0.154c-1.997-0.006-3.994-0.002-5.991-0.002C119.205,24.928,119.059,24.928,118.884,24.928"/>
	<path clip-path="url(#SVGID_2_)" fill="#808285" d="M30.458,24.494V0.612c0.303-0.081,14.49-0.105,15.032-0.025v2.128H32.928v8.212
		c0.991,0.032,1.97,0.011,2.948,0.015c0.972,0.004,1.943,0,2.915,0h2.955h2.93v2.107c0,0-0.01,0.009-0.019,0.018
		c-0.01,0.009-0.019,0.023-0.03,0.025c-0.04,0.007-0.081,0.013-0.121,0.013c-3.832,0.004-7.663,0.008-11.495,0.012
		c-0.013,0-0.026,0.007-0.039,0.011c-0.009,0.009-0.019,0.017-0.028,0.026c-0.009,0.01-0.024,0.021-0.024,0.032
		c-0.007,2.901-0.013,5.801-0.018,8.702c0,0.119,0.008,0.239,0.017,0.358c0.002,0.024,0.023,0.046,0.053,0.103h12.869
		c0.098,0.3,0.123,1.468,0.055,2.121C45.608,24.542,31.135,24.569,30.458,24.494"/>
	<path clip-path="url(#SVGID_2_)" fill="#808285" d="M7.413,39.491c1.489-3.63,2.943-7.174,4.402-10.73h2.667
		c0.02,0.019,0.03,0.027,0.039,0.037c0.009,0.009,0.023,0.021,0.023,0.032c0.007,4.55,0.013,9.101,0.019,13.65
		c0,0.172,0,0.344,0,0.506c-0.305,0.098-1.595,0.113-2.087,0.028V32.661c-0.028-0.008-0.056-0.014-0.084-0.021
		C10.92,36.1,9.47,39.568,7.996,43.045h-1.22c-1.459-3.455-2.926-6.927-4.393-10.4L2.3,32.663v10.397
		c-0.704,0.008-1.368,0.006-2.051,0.001V28.764h2.707C4.431,32.312,5.905,35.86,7.413,39.491"/>
	<path clip-path="url(#SVGID_2_)" fill="#808285" d="M76.782,24.504V0.609c0.306-0.077,1.956-0.094,2.471-0.022
		c0.003,0.586,0.006,1.18,0.007,1.774c0.001,0.613,0,1.225,0,1.837v1.796v1.837v1.796v1.837v1.796v1.797v1.836v1.797v1.836v1.826
		h11.266c0.088,0.328,0.1,1.688,0.025,2.152H76.782z"/>
	<path clip-path="url(#SVGID_2_)" fill="#808285" d="M95.595,35.905c0.041,0.382,0.057,0.769,0.126,1.146
		c0.28,1.533,1.016,2.79,2.372,3.643c1.06,0.665,2.225,0.895,3.474,0.776c1.632-0.153,2.952-0.869,3.833-2.221
		c1.252-1.924,1.321-3.974,0.376-6.044c-0.522-1.147-1.404-1.973-2.574-2.478c-0.961-0.413-1.964-0.523-3.005-0.38
		c-1.342,0.188-2.452,0.779-3.305,1.814C95.998,33.249,95.627,34.518,95.595,35.905 M101.02,43.428
		c-2.126-0.019-3.972-0.71-5.468-2.208c-1.184-1.185-1.842-2.63-2.04-4.285c-0.183-1.514-0.016-2.976,0.649-4.357
		c1.09-2.265,2.912-3.612,5.402-4.061c1.97-0.354,3.844-0.055,5.552,1.001c1.866,1.153,2.95,2.836,3.321,4.969
		c0.283,1.626,0.134,3.214-0.583,4.713c-1.112,2.322-2.989,3.675-5.549,4.103C101.882,43.373,101.448,43.388,101.02,43.428"/>
	<path clip-path="url(#SVGID_2_)" fill="#808285" d="M31.221,41.141c0.91,0,1.773,0.02,2.635-0.007
		c0.508-0.016,1.027-0.052,1.52-0.167c3.172-0.735,4.399-3.427,4.081-5.787c-0.365-2.702-2.543-4.323-5.004-4.493
		c-0.953-0.066-1.913-0.048-2.869-0.063c-0.116-0.002-0.232,0.019-0.363,0.031V41.141z M29.156,43.043V28.769
		c0.097-0.011,0.174-0.028,0.251-0.028c1.728,0.004,3.46-0.075,5.181,0.032c2.878,0.181,5.117,1.454,6.444,4.07
		c0.36,0.709,0.524,1.471,0.607,2.26c0.1,0.951,0.044,1.892-0.215,2.807c-0.548,1.938-1.779,3.345-3.579,4.266
		c-1.142,0.585-2.371,0.873-3.656,0.886c-1.579,0.017-3.158,0.004-4.737,0.004C29.361,43.063,29.27,43.052,29.156,43.043"/>
	<path clip-path="url(#SVGID_2_)" fill="#808285" d="M77.457,40.766v-3.6c-1.056-0.046-2.102,0.003-3.141-0.028
		c-0.084-0.294-0.101-1.382-0.028-1.883h5.194c0.072,0.313,0.101,5.964,0.031,6.692c-0.425,0.294-0.908,0.521-1.406,0.721
		c-1.476,0.588-3.012,0.796-4.595,0.718c-1.641-0.081-3.102-0.628-4.377-1.65c-1.122-0.901-1.866-2.059-2.283-3.412
		c-0.495-1.606-0.527-3.233,0.005-4.829c0.93-2.785,2.89-4.455,5.813-4.986c1.513-0.274,3.007-0.146,4.449,0.409
		c0.84,0.324,1.575,0.811,2.212,1.441c0.065,0.063,0.123,0.136,0.146,0.162c-0.485,0.481-0.957,0.949-1.444,1.433
		c-0.188-0.169-0.396-0.376-0.621-0.561c-1.067-0.865-2.318-1.167-3.666-1.095c-1.528,0.081-2.811,0.692-3.79,1.87
		c-0.602,0.723-0.975,1.556-1.161,2.471c-0.289,1.433-0.137,2.818,0.565,4.105c0.893,1.64,2.299,2.565,4.196,2.729
		c1.159,0.1,2.283-0.057,3.369-0.468C77.101,40.938,77.267,40.852,77.457,40.766"/>
	<path clip-path="url(#SVGID_2_)" fill="#808285" d="M84.59,30.673v4.092c0.05,0.024,0.073,0.047,0.097,0.047
		c1.01,0.012,2.022,0.062,3.027-0.074c0.481-0.064,0.948-0.201,1.36-0.472c0.312-0.204,0.55-0.469,0.67-0.824
		c0.338-0.992,0.046-2.207-1.283-2.604c-0.09-0.027-0.181-0.058-0.272-0.077c-1.172-0.257-2.358-0.142-3.542-0.129
		C84.637,30.631,84.627,30.646,84.59,30.673 M88.654,36.501c1.368,2.198,2.706,4.348,4.069,6.537H90.19
		c-1.262-2.099-2.538-4.222-3.813-6.346h-1.805c-0.004,0.436-0.009,0.857-0.01,1.278c-0.002,0.412-0.001,0.824-0.001,1.236v1.277
		v1.237v1.268c-0.298,0.092-1.524,0.11-2.042,0.032V28.774c0.108-0.012,0.211-0.034,0.313-0.034c1.563,0.003,3.129-0.01,4.692,0.021
		c0.908,0.018,1.795,0.195,2.603,0.639c1.081,0.594,1.661,1.51,1.795,2.722c0.081,0.743,0.025,1.464-0.286,2.145
		c-0.491,1.07-1.339,1.743-2.466,2.087c-0.078,0.024-0.155,0.046-0.233,0.068C88.862,36.442,88.788,36.464,88.654,36.501"/>
	<path clip-path="url(#SVGID_2_)" fill="#808285" d="M51.812,37.518h5.058c-0.841-1.998-1.665-3.959-2.529-6.014
		C53.475,33.562,52.649,35.525,51.812,37.518 M61.527,43.051h-2.316c-0.504-1.18-1.009-2.364-1.519-3.559h-6.701
		c-0.496,1.177-0.991,2.351-1.494,3.546h-2.299c2.092-4.773,4.172-9.521,6.257-14.279h1.849
		C57.364,33.491,59.434,38.245,61.527,43.051"/>
	<path clip-path="url(#SVGID_2_)" fill="#808285" d="M19.671,30.621c-0.078,0.496-0.063,3.707,0.018,4.044h6.629v1.898h-6.627
		c-0.085,0.334-0.098,4.093-0.021,4.572h7.356v1.865c-0.007,0.007-0.015,0.018-0.025,0.025c-0.01,0.01-0.021,0.022-0.032,0.022
		c-2.98,0.006-5.961,0.012-8.942,0.016c-0.121,0-0.242-0.005-0.363-0.012c-0.023-0.002-0.045-0.024-0.087-0.048v-14.24h9.211v1.845
		c-0.794,0.023-1.584,0.007-2.373,0.011c-0.782,0.003-1.565,0.001-2.347,0.001H19.671z"/>
	<path clip-path="url(#SVGID_2_)" fill="#808285" d="M119.682,28.76h2.086c0.007,0.148,0.018,0.277,0.018,0.406
		c0.001,2.861,0.014,5.723-0.006,8.583c-0.006,1.002-0.182,1.985-0.64,2.897c-0.703,1.396-1.83,2.287-3.374,2.614
		c-1.105,0.234-2.233,0.24-3.324-0.071c-1.79-0.513-2.903-1.716-3.421-3.464c-0.193-0.653-0.273-1.325-0.271-2.009
		c0.005-2.821,0.002-5.643,0.002-8.463v-0.49h2.053c0.007,0.169,0.017,0.323,0.017,0.479c0.001,2.768-0.005,5.535,0.005,8.303
		c0.002,0.775,0.116,1.54,0.477,2.243c0.513,0.999,1.328,1.57,2.475,1.686c0.656,0.065,1.294,0.027,1.902-0.227
		c1.027-0.43,1.592-1.245,1.826-2.286c0.105-0.463,0.166-0.945,0.168-1.42c0.017-2.754,0.009-5.509,0.009-8.263V28.76z"/>
	<path clip-path="url(#SVGID_2_)" fill="#808285" d="M126.844,30.629c-0.079,0.409-0.069,3.88,0.011,4.195
		c0.046,0.006,0.098,0.02,0.149,0.02c0.754,0.001,1.511,0.021,2.265-0.007c0.372-0.014,0.752-0.078,1.109-0.179
		c0.894-0.251,1.437-0.824,1.488-1.766c0.054-1.001-0.29-1.607-1.122-1.962c-0.501-0.214-1.032-0.308-1.573-0.32
		c-0.687-0.017-1.375-0.006-2.062-0.003C127.019,30.607,126.928,30.622,126.844,30.629 M126.778,36.755v6.288h-2.06V28.768
		c0.101-0.011,0.19-0.027,0.28-0.027c1.512,0.003,3.022-0.002,4.533,0.018c0.76,0.011,1.5,0.163,2.197,0.474
		c1.379,0.613,2.131,1.656,2.215,3.159c0.046,0.812-0.05,1.594-0.475,2.309c-0.543,0.912-1.382,1.43-2.382,1.732
		c-0.729,0.221-1.48,0.272-2.234,0.297c-0.539,0.019-1.08,0.003-1.619,0.005C127.103,36.734,126.972,36.745,126.778,36.755"/>
	<path clip-path="url(#SVGID_2_)" fill="#808285" d="M45.979,43.05h-1.959c-0.09-0.302-0.106-13.838-0.016-14.286h1.975V43.05z"/>
</g>
</svg>
