<?xml version="1.0" encoding="utf-8"?>
<!-- Generator: Adobe Illustrator 16.0.0, SVG Export Plug-In . SVG Version: 6.00 Build 0)  -->
<!DOCTYPE svg PUBLIC "-//W3C//DTD SVG 1.1//EN" "http://www.w3.org/Graphics/SVG/1.1/DTD/svg11.dtd">
<svg version="1.1" id="Layer_1" xmlns="http://www.w3.org/2000/svg" xmlns:xlink="http://www.w3.org/1999/xlink" x="0px" y="0px"
	 width="45.548px" height="45.411px" viewBox="4.526 6.638 45.548 45.411" enable-background="new 4.526 6.638 45.548 45.411"
	 xml:space="preserve">
<g>
	<g>
		<path fill="#C1A426" d="M42.71,33.605c1.937-1.372,3.856-2.732,5.804-4.111c-0.992-1.334-1.933-2.653-2.91-3.931
			c-2.347,0.96-4.373,0.107-5.46-1.195c-0.601-0.719-0.944-1.547-1.015-2.469c-0.099-1.313,0.346-2.457,1.233-3.416
			c-0.301-0.528-2.707-3.756-2.928-3.932c-1.922,1.361-3.846,2.725-5.751,4.073c-0.022,0.78-0.519,1.126-1.313,0.931
			c-7.509,5.319-15.032,10.648-22.577,15.993c0.979,1.328,1.941,2.635,2.899,3.935c2.385-0.997,4.427-0.075,5.474,1.194
			c0.576,0.698,0.923,1.496,1,2.396c0.116,1.346-0.315,2.513-1.245,3.512c0.973,1.318,1.929,2.615,2.903,3.938
			c7.549-5.348,15.07-10.675,22.574-15.991C41.446,33.736,42,33.346,42.71,33.605 M12.654,40.594
			c-0.614-0.015-1.155,0.19-1.655,0.515c-0.275,0.178-0.559,0.259-0.861,0.092c-0.118-0.065-0.23-0.161-0.311-0.27
			c-1.104-1.489-2.209-2.979-3.298-4.477c-0.493-0.681-0.354-1.649,0.377-2.172c0.578-0.414,1.159-0.822,1.738-1.232
			c3.996-2.829,7.993-5.658,11.987-8.488c4.193-2.97,8.386-5.938,12.577-8.908c1.075-0.763,2.15-1.527,3.228-2.291
			c0.239-0.17,0.49-0.308,0.796-0.341c0.688-0.075,1.218,0.167,1.618,0.72c0.539,0.745,1.089,1.483,1.634,2.225
			c0.352,0.478,0.685,0.97,1.059,1.429c0.596,0.731,0.466,1.635-0.104,2.252c-1.468,1.591-0.7,4.104,1.403,4.699
			c0.708,0.199,1.39,0.122,2.051-0.174c0.528-0.236,1.045-0.215,1.535,0.082c0.17,0.104,0.329,0.243,0.447,0.401
			c0.965,1.293,1.925,2.59,2.873,3.896c0.548,0.757,0.392,1.679-0.372,2.223c-1.807,1.29-3.62,2.57-5.432,3.854
			c-4.057,2.875-8.112,5.751-12.171,8.625c-2.96,2.098-5.922,4.192-8.882,6.289c-1.004,0.712-2.009,1.423-3.011,2.137
			c-0.46,0.327-0.951,0.467-1.514,0.302c-0.401-0.117-0.687-0.371-0.924-0.694c-0.387-0.528-0.776-1.056-1.165-1.584
			c-0.515-0.7-1.018-1.41-1.549-2.1c-0.581-0.754-0.414-1.602,0.13-2.188c1.558-1.681,0.617-4.288-1.598-4.765
			C13.065,40.606,12.856,40.61,12.654,40.594"/>
	</g>
	<g>
		<path fill="#C1A426" d="M28.832,10.617c-1.423-0.816-2.83-1.623-4.27-2.449c-1.213,2.035-2.41,4.043-3.614,6.063
			c0.205,0.311,0.163,0.601-0.019,0.912c-0.181,0.308-0.427,0.451-0.779,0.429c-0.397,0.664-0.783,1.312-1.169,1.96
			c-1.908,3.199-3.815,6.398-5.723,9.598c-0.566,0.951-1.135,1.902-1.697,2.855c-0.188,0.316-0.457,0.457-0.828,0.413
			c-0.454-0.055-0.763-0.502-0.633-0.934c0.034-0.118,0.092-0.232,0.155-0.34c2.654-4.454,5.312-8.906,7.967-13.358
			c1.623-2.725,3.241-5.45,4.868-8.173c0.121-0.201,0.264-0.405,0.44-0.561c0.516-0.453,1.19-0.519,1.816-0.185
			c0.536,0.286,1.062,0.599,1.591,0.901c0.87,0.498,1.737,1.002,2.609,1.497c0.487,0.275,0.794,0.673,0.845,1.222
			c0.021,0.23-0.008,0.48-0.082,0.698c-0.285,0.832-0.221,1.626,0.196,2.397c0.099,0.179,0.175,0.362,0.131,0.574
			c-0.069,0.322-0.299,0.56-0.598,0.614c-0.367,0.067-0.672-0.05-0.854-0.355c-0.324-0.548-0.537-1.135-0.584-1.771
			C28.546,11.881,28.589,11.552,28.832,10.617"/>
	</g>
	<g>
		<path fill="#C1A426" d="M6.091,39.171c0.148,0.093,0.272,0.174,0.401,0.249c0.615,0.354,1.231,0.706,1.848,1.057
			c0.268,0.151,0.464,0.346,0.479,0.672c0.028,0.609-0.562,1.007-1.118,0.73c-0.386-0.19-0.752-0.42-1.126-0.634
			c-0.407-0.232-0.815-0.465-1.219-0.702c-0.812-0.477-1.055-1.348-0.607-2.169c0.077-0.144,0.155-0.288,0.248-0.422
			c0.268-0.384,0.69-0.488,1.065-0.272c0.379,0.216,0.493,0.672,0.269,1.076C6.258,38.887,6.181,39.014,6.091,39.171"/>
	</g>
	<g>
		<path fill="#C1A426" d="M24.913,16.917c-0.073,0.281-0.212,0.581-0.524,0.769c-0.165,0.099-0.348,0.092-0.512,0.001
			c-0.52-0.288-1.038-0.579-1.55-0.879c-0.175-0.103-0.261-0.272-0.252-0.476c0.016-0.347,0.185-0.62,0.462-0.817
			c0.177-0.127,0.394-0.121,0.58-0.02c0.521,0.286,1.037,0.58,1.548,0.883C24.838,16.48,24.908,16.658,24.913,16.917"/>
	</g>
	<g>
		<path fill="#C1A426" d="M27.257,18.203c-0.058,0.312-0.189,0.593-0.458,0.785c-0.224,0.159-0.5,0.134-0.706-0.033
			c-0.205-0.166-0.288-0.431-0.172-0.671c0.093-0.188,0.205-0.375,0.348-0.529c0.172-0.188,0.411-0.18,0.637-0.092
			C27.145,17.757,27.231,17.961,27.257,18.203"/>
	</g>
	<g>
		<path fill="#C1A426" d="M33.179,22.939c-0.146-0.006-0.31-0.078-0.422-0.226c-0.316-0.422-0.629-0.849-0.94-1.274
			c-0.016-0.021-0.028-0.042-0.037-0.065c-0.139-0.335,0.013-0.624,0.474-0.908c0.309-0.189,0.61-0.178,0.823,0.086
			c0.331,0.412,0.645,0.84,0.938,1.277c0.192,0.286,0.114,0.578-0.157,0.796C33.558,22.864,33.403,22.941,33.179,22.939"/>
	</g>
	<g>
		<path fill="#C1A426" d="M38.042,29.5c-0.192,0.004-0.348-0.074-0.46-0.224c-0.3-0.403-0.604-0.802-0.891-1.216
			c-0.209-0.303-0.148-0.596,0.139-0.826c0.089-0.071,0.179-0.143,0.276-0.2c0.3-0.182,0.639-0.134,0.849,0.137
			c0.3,0.389,0.593,0.781,0.873,1.184c0.22,0.315,0.16,0.611-0.144,0.857C38.399,29.443,38.263,29.504,38.042,29.5"/>
	</g>
	<g>
		<path fill="#C1A426" d="M41.37,31.899c0.063,0.509-0.775,1.084-1.123,0.847c-0.102-0.07-0.211-0.143-0.285-0.238
			c-0.274-0.357-0.543-0.725-0.804-1.095c-0.253-0.356-0.197-0.679,0.153-0.943c0.02-0.015,0.041-0.027,0.061-0.044
			c0.438-0.34,0.802-0.291,1.122,0.18c0.228,0.332,0.479,0.646,0.71,0.976C41.288,31.701,41.341,31.842,41.37,31.899"/>
	</g>
	<g>
		<path fill="#C1A426" d="M36.561,25.463c-0.075,0.141-0.115,0.279-0.206,0.371c-0.121,0.124-0.271,0.229-0.426,0.312
			c-0.255,0.136-0.572,0.077-0.756-0.155c-0.319-0.403-0.629-0.816-0.92-1.24c-0.193-0.284-0.126-0.581,0.142-0.799
			c0.528-0.432,0.905-0.469,1.313,0.152c0.199,0.303,0.439,0.581,0.643,0.883C36.443,25.126,36.488,25.296,36.561,25.463"/>
	</g>
</g>
</svg>
