<?xml version="1.0" encoding="utf-8"?>
<!-- Generator: Adobe Illustrator 16.0.0, SVG Export Plug-In . SVG Version: 6.00 Build 0)  -->
<!DOCTYPE svg PUBLIC "-//W3C//DTD SVG 1.1//EN" "http://www.w3.org/Graphics/SVG/1.1/DTD/svg11.dtd">
<svg version="1.1" id="Layer_1" xmlns="http://www.w3.org/2000/svg" xmlns:xlink="http://www.w3.org/1999/xlink" x="0px" y="0px"
	 width="163.522px" height="33.85px" viewBox="0 0 163.522 33.85" enable-background="new 0 0 163.522 33.85" xml:space="preserve">
<g>
	<defs>
		<rect id="SVGID_1_" width="163.522" height="33.85"/>
	</defs>
	<clipPath id="SVGID_2_">
		<use xlink:href="#SVGID_1_"  overflow="visible"/>
	</clipPath>
	<path clip-path="url(#SVGID_2_)" fill="#808285" d="M60.326,16.876c0.173,1.146,0.246,2.32,0.539,3.435
		c0.714,2.716,2.188,4.981,4.358,6.712c2.96,2.359,6.353,3.343,10.083,2.802c2.934-0.425,5.485-1.715,7.565-3.919
		c3.103-3.285,4.222-7.186,3.364-11.624c-0.592-3.068-2.203-5.566-4.621-7.495C78.574,4.36,75.126,3.48,71.315,4.1
		c-3.111,0.506-5.706,1.967-7.769,4.4C61.513,10.9,60.425,13.662,60.326,16.876 M73.824,33.833
		c-4.407,0.025-8.002-1.286-11.134-3.839c-2.758-2.248-4.7-5.108-5.564-8.626c-0.341-1.392-0.606-2.838-0.639-4.266
		c-0.05-2.187,0.344-4.34,1.176-6.382c0.933-2.292,2.259-4.32,4.049-6.007c2.342-2.207,5.075-3.664,8.206-4.351
		c1.552-0.34,3.12-0.423,4.686-0.321c3.502,0.227,6.667,1.431,9.428,3.653c3.439,2.767,5.598,6.358,6.222,10.775
		c0.564,3.997-0.163,7.79-2.305,11.254c-2.173,3.516-5.218,5.911-9.053,7.243C77.146,33.574,75.329,33.936,73.824,33.833"/>
	<path clip-path="url(#SVGID_2_)" fill="#808285" d="M23.5,24.449v-0.658c0-7.352,0-14.704,0-22.054
		c0-0.801,0.001-0.802,0.807-0.802c0.872,0,1.745,0.025,2.615-0.01c0.463-0.018,0.596,0.128,0.595,0.601
		c-0.017,4.347-0.01,8.694-0.01,13.041c0,5.82-0.006,11.642,0.01,17.462c0.001,0.506-0.114,0.665-0.639,0.68
		c-0.852,0.021-1.49-0.118-2.101-0.875c-1.196-1.482-2.57-2.814-3.859-4.219c-1.44-1.567-2.87-3.146-4.303-4.721
		c-1.873-2.059-3.745-4.118-5.618-6.177c-1.433-1.575-2.87-3.146-4.301-4.723c-0.765-0.844-1.519-1.697-2.281-2.544
		C4.359,9.384,4.282,9.338,4.13,9.216c0,0.29,0,0.488,0,0.686c0,7.257,0,14.515,0,21.771c0,1.014,0,1.014-1.018,1.014
		c-0.779,0-1.558,0-2.337,0c-0.762,0-0.763-0.001-0.763-0.75c0-2.721,0-5.443,0-8.164c0-7.39,0.006-14.779-0.012-22.168
		c-0.001-0.556,0.166-0.661,0.684-0.693C1.609,0.855,2.244,1.118,2.852,1.9c0.996,1.281,2.174,2.415,3.27,3.615
		c1.966,2.151,3.931,4.302,5.891,6.459c1.256,1.381,2.505,2.77,3.753,4.159c1.947,2.167,3.888,4.339,5.837,6.502
		c0.572,0.635,1.167,1.248,1.751,1.872C23.403,24.487,23.452,24.468,23.5,24.449"/>
	<path clip-path="url(#SVGID_2_)" fill="#808285" d="M145.837,28.718c2.968,0,5.936-0.03,8.902,0.009
		c2.389,0.032,4.381-1.797,4.798-4.106c0.319-1.775-0.098-3.338-1.239-4.675c-0.697-0.815-1.637-1.388-2.699-1.414
		c-3.834-0.093-7.669-0.116-11.504-0.126c-1.652-0.004-3.291-0.027-4.858-0.646c-3.183-1.258-5.05-3.576-5.544-7.048
		c-0.311-2.187,0.212-4.15,1.412-5.935c1.392-2.069,3.38-3.206,5.782-3.609c0.58-0.097,1.176-0.115,1.765-0.116
		c5.249-0.009,10.499,0.005,15.748-0.02c0.581-0.003,0.729,0.167,0.697,0.73c-0.046,0.848-0.037,1.701-0.002,2.55
		c0.02,0.478-0.137,0.602-0.595,0.6c-5.397-0.015-10.795-0.037-16.192,0.005c-2.135,0.017-3.999,1.245-4.63,3.436
		c-0.834,2.901,1.246,5.999,4.197,6.062c4.39,0.093,8.781,0.06,13.173,0.14c2.055,0.038,3.895,0.747,5.458,2.162
		c2.043,1.85,3.078,4.179,3.013,6.931c-0.085,3.57-1.679,6.299-4.791,8.017c-1.268,0.7-2.681,1-4.107,1.008
		c-6.028,0.034-12.058,0.008-18.085,0.025c-0.502,0.002-0.635-0.146-0.615-0.639c0.037-0.925,0.034-1.853,0.001-2.777
		c-0.017-0.455,0.132-0.574,0.567-0.571C139.604,28.726,142.721,28.718,145.837,28.718"/>
	<path clip-path="url(#SVGID_2_)" fill="#808285" d="M56.159,32.687h-0.501c-7.049,0-14.097-0.006-21.145,0.012
		c-0.542,0.002-0.673-0.157-0.672-0.696c0.016-10.127,0.016-20.254,0-30.382c0-0.536,0.126-0.7,0.67-0.698
		c7.067,0.019,14.134,0.012,21.2,0.012h0.685c-0.301,0.395-0.529,0.692-0.755,0.991c-0.607,0.804-1.234,1.594-1.809,2.421
		c-0.231,0.332-0.467,0.454-0.863,0.453c-4.749-0.014-9.497-0.01-14.245-0.009c-0.75,0-0.751,0.001-0.751,0.744
		c-0.001,2.853,0.009,5.707-0.01,8.56c-0.004,0.454,0.132,0.572,0.567,0.57c3.672-0.016,7.345-0.009,11.017-0.009h0.675
		c-0.043,0.553-0.096,1.03-0.112,1.509c-0.019,0.548-0.034,1.098,0.005,1.643c0.033,0.479-0.138,0.602-0.595,0.6
		c-3.58-0.017-7.16,0.003-10.739-0.022c-0.557-0.004-0.725,0.129-0.713,0.715c0.039,1.965,0.026,3.931,0.009,5.896
		c-0.01,1.11-0.047,2.222-0.114,3.329c-0.031,0.508,0.134,0.633,0.622,0.631c4.748-0.018,9.496-0.005,14.244-0.02
		c0.437-0.001,0.7,0.133,0.956,0.504C54.534,30.524,55.337,31.571,56.159,32.687"/>
	<path clip-path="url(#SVGID_2_)" fill="#808285" d="M90.611,1.046h0.539c5.749,0,11.499-0.051,17.248,0.02
		c3.417,0.042,6.157,1.546,7.717,4.706c1.501,3.041,1.28,6.118-0.678,8.919c-1.541,2.205-3.737,3.354-6.386,3.598
		c-0.142,0.013-0.279,0.068-0.517,0.131c3.001,4.744,5.967,9.431,8.989,14.211c-0.269,0.025-0.423,0.054-0.577,0.055
		c-1.094,0.004-2.188-0.013-3.282,0.01c-0.396,0.008-0.641-0.119-0.859-0.467c-1.228-1.949-2.472-3.887-3.727-5.819
		c-1.559-2.401-3.167-4.771-4.677-7.205c-0.413-0.664-0.851-0.84-1.563-0.821c-1.854,0.045-3.709,0.003-5.564,0.023
		c-0.414,0.004-0.538-0.12-0.538-0.545c-0.001-0.958-0.043-1.918-0.103-2.876c-0.031-0.486,0.254-0.446,0.562-0.445
		c3.542,0.002,7.085,0.01,10.627-0.004c1.12-0.004,2.199-0.224,3.17-0.843c1.237-0.788,1.925-1.922,2.123-3.393
		c0.42-3.103-1.996-5.404-4.851-5.4c-4.748,0.007-9.496-0.004-14.243,0.011c-0.438,0.001-0.699-0.136-0.956-0.505
		C92.291,3.287,91.465,2.205,90.611,1.046"/>
	<path clip-path="url(#SVGID_2_)" fill="#808285" d="M123.463,16.813c0-5.081,0.006-10.163-0.011-15.244
		c-0.001-0.48,0.095-0.673,0.608-0.647c0.869,0.044,1.744,0.038,2.614,0.001c0.476-0.02,0.584,0.152,0.583,0.612
		c-0.014,6.404-0.009,12.808-0.009,19.211c0,3.777-0.008,7.557,0.009,11.335c0.002,0.451-0.096,0.638-0.578,0.615
		c-0.87-0.037-1.745-0.042-2.614,0.002c-0.506,0.025-0.615-0.153-0.613-0.642C123.469,26.976,123.463,21.894,123.463,16.813"/>
</g>
</svg>
