<?xml version="1.0" encoding="utf-8"?>
<!-- Generator: Adobe Illustrator 16.0.0, SVG Export Plug-In . SVG Version: 6.00 Build 0)  -->
<!DOCTYPE svg PUBLIC "-//W3C//DTD SVG 1.1//EN" "http://www.w3.org/Graphics/SVG/1.1/DTD/svg11.dtd">
<svg version="1.1" id="Layer_1" xmlns="http://www.w3.org/2000/svg" xmlns:xlink="http://www.w3.org/1999/xlink" x="0px" y="0px"
	 width="174.398px" height="36.406px" viewBox="0 0 174.398 36.406" enable-background="new 0 0 174.398 36.406"
	 xml:space="preserve">
<g>
	<defs>
		<rect id="SVGID_1_" width="174.398" height="36.406"/>
	</defs>
	<clipPath id="SVGID_2_">
		<use xlink:href="#SVGID_1_"  overflow="visible"/>
	</clipPath>
	<path clip-path="url(#SVGID_2_)" fill="#808285" d="M0,1.321c0.613-0.875,1.485-1.062,2.491-1.057
		c7.637,0.031,15.274,0.028,22.91,0.057c1.874,0.007,2.241,0.424,2.265,2.347c0.008,0.592,0.001,1.184,0.001,1.819
		c-7.282,5.025-13.8,10.817-19.283,17.756C17.844,15.029,26.863,7.261,36.286,0c-2.614,2.759-5.707,4.965-8.617,7.522
		c0,1.026,0.001,2.034-0.001,3.042c-0.009,7.573-0.032,15.146-0.016,22.719c0.003,1.177-0.156,2.246-0.996,3.123H1.066
		C0.711,35.928,0.355,35.451,0,34.974V1.321z"/>
	<path clip-path="url(#SVGID_2_)" fill="#808285" d="M73.237,16.109c1.187,0,2.237,0.039,3.283-0.012
		c1.05-0.05,1.702-0.712,1.731-1.635c0.032-1.002-0.646-1.734-1.768-1.791c-1.04-0.053-2.084-0.012-3.246-0.012V16.109z
		 M73.208,19.97c-0.028-0.034-0.057-0.069-0.085-0.104c0.043,0.02,0.086,0.039,0.129,0.059c-0.099,1.285-0.331,2.576,0.156,3.997
		c1.136,0,2.251,0.037,3.363-0.011c1.078-0.048,1.669-0.707,1.763-1.838c0.085-1.031-0.331-1.706-1.447-1.87
		C75.81,20.014,74.501,20.039,73.208,19.97 M68.812,27.39V9.028c0.462-0.059,0.854-0.15,1.245-0.152
		c2.25-0.006,4.502-0.051,6.747,0.045c0.981,0.042,2.004,0.25,2.91,0.623c2.393,0.988,3.655,4.897,1.809,7.127
		c-0.336,0.405-0.647,0.831-0.994,1.28c0.507,0.704,0.931,1.406,1.463,2.011c1.886,2.142-0.111,7.388-3.627,7.479
		c-1.36,0.035-2.722,0.016-4.082,0.045c-1.477,0.033-2.952,0.111-4.429,0.134C69.522,27.625,69.188,27.477,68.812,27.39"/>
	<path clip-path="url(#SVGID_2_)" fill="#808285" d="M37.762,17.063c1.193,0,2.191,0.08,3.17-0.021
		c1.108-0.115,1.782-0.946,1.839-2.031c0.072-1.34-0.378-2.121-1.636-2.316c-1.062-0.164-2.168-0.034-3.373-0.034V17.063z
		 M43.964,19.899c1.319,2.517,2.583,4.928,3.955,7.544h-4.891c-1.031-2.162-2.145-4.498-3.245-6.806
		c-0.463-0.033-0.752-0.077-1.04-0.067c-0.285,0.011-0.567,0.077-1.069,0.15v6.683h-4.12V9.012c0.415-0.047,0.802-0.129,1.189-0.13
		c2.25-0.002,4.503-0.058,6.748,0.041c3.354,0.15,5.757,2.79,5.712,6.055c-0.023,1.712-1.019,2.856-2.082,3.982
		C44.841,19.256,44.486,19.481,43.964,19.899"/>
	<path clip-path="url(#SVGID_2_)" fill="#808285" d="M137.47,21.08c-0.673-1.802-0.871-3.552-1.947-5.477
		c-0.831,2.016-1.376,3.72-1.906,5.667C135.026,21.396,136.148,21.576,137.47,21.08 M141.796,22.05c0.674,1.7,1.347,3.4,2.061,5.202
		c-1.454,0.632-2.837,0.045-4.306,0.214c-0.304-0.812-0.588-1.576-0.938-2.517h-6.17c-0.271,0.719-0.595,1.588-0.96,2.562h-4.388
		c2.212-6.152,4.428-12.317,6.665-18.542h3.411c0.341,0.985,0.684,2.04,1.065,3.079c1.148,3.118,2.312,6.23,3.463,9.347
		c0.081,0.22,0.096,0.465,0.141,0.698c-0.032,0.034-0.064,0.069-0.097,0.104C141.761,22.149,141.778,22.1,141.796,22.05"/>
	<path clip-path="url(#SVGID_2_)" fill="#808285" d="M60.759,8.962h3.796c0.041,0.439,0.107,0.831,0.109,1.224
		c0.016,3.574-0.008,7.149,0.038,10.723c0.037,2.832-1.011,4.979-3.666,6.133c-2.965,1.29-6.444,0.775-8.44-1.254
		c-0.983-1.001-1.643-2.284-1.673-3.658c-0.094-4.335-0.035-8.674-0.035-13.132h3.879c0,3.542-0.016,7.035,0.012,10.528
		c0.006,0.826,0.104,1.662,0.257,2.474c0.251,1.333,1.335,2.221,2.59,2.216c1.409-0.004,2.618-0.887,2.854-2.201
		c0.167-0.933,0.258-1.89,0.267-2.835C60.778,15.846,60.759,12.512,60.759,8.962"/>
	<path clip-path="url(#SVGID_2_)" fill="#808285" d="M121.763,22.213h4.223c-0.99,5.017-6.028,6.653-10.136,4.845
		c-2.132-0.939-3.396-2.733-3.648-4.931c-0.318-2.76-0.471-5.583,0.177-8.343c0.706-3.016,3.041-4.913,6.098-4.963
		c0.88-0.015,1.786-0.001,2.639,0.19c2.789,0.627,4.228,2.593,4.982,5.365h-4.24c-1.109-1.801-2.087-2.33-3.532-1.908
		c-1.332,0.389-1.802,1.141-1.857,3.249c-0.049,1.833-0.036,3.669,0.01,5.503c0.042,1.652,0.751,2.577,2.098,2.895
		c1.229,0.29,2.092-0.174,2.989-1.607C121.656,22.36,121.758,22.22,121.763,22.213"/>
</g>
<polygon fill="#808285" points="150.625,23.912 158.646,23.912 158.646,27.482 152.577,27.482 146.566,27.482 146.566,8.979 
	150.625,8.979 "/>
<g>
	<defs>
		<rect id="SVGID_3_" width="174.398" height="36.406"/>
	</defs>
	<clipPath id="SVGID_4_">
		<use xlink:href="#SVGID_3_"  overflow="visible"/>
	</clipPath>
	<path clip-path="url(#SVGID_4_)" fill="#808285" d="M104.365,8.966h3.855v18.412c-1.248,0.077-2.497,0.155-3.726,0.231
		C104.087,26.235,103.993,11.477,104.365,8.966"/>
</g>
<polygon fill="#808285" points="162.317,8.978 162.317,27.482 168.329,27.482 174.398,27.482 174.398,23.913 166.376,23.913 
	166.376,8.978 "/>
<g>
	<defs>
		<rect id="SVGID_5_" width="174.398" height="36.406"/>
	</defs>
	<clipPath id="SVGID_6_">
		<use xlink:href="#SVGID_5_"  overflow="visible"/>
	</clipPath>
	<path clip-path="url(#SVGID_6_)" fill="#808285" d="M90.753,17.063c1.192,0,2.19,0.08,3.17-0.021
		c1.107-0.115,1.782-0.946,1.839-2.031c0.072-1.34-0.378-2.121-1.636-2.316c-1.062-0.164-2.168-0.034-3.373-0.034V17.063z
		 M96.955,19.899c1.318,2.517,2.582,4.928,3.954,7.544h-4.892c-1.03-2.162-2.144-4.498-3.244-6.806
		c-0.463-0.033-0.753-0.077-1.04-0.067c-0.285,0.011-0.566,0.077-1.068,0.15v6.683h-4.121V9.012c0.415-0.047,0.802-0.129,1.189-0.13
		c2.25-0.002,4.502-0.058,6.748,0.041c3.354,0.15,5.757,2.79,5.712,6.055c-0.022,1.712-1.019,2.856-2.082,3.982
		C97.832,19.256,97.476,19.481,96.955,19.899"/>
</g>
</svg>
