<?xml version="1.0" encoding="utf-8"?>
<!-- Generator: Adobe Illustrator 16.0.0, SVG Export Plug-In . SVG Version: 6.00 Build 0)  -->
<!DOCTYPE svg PUBLIC "-//W3C//DTD SVG 1.1//EN" "http://www.w3.org/Graphics/SVG/1.1/DTD/svg11.dtd">
<svg version="1.1" id="Layer_1" xmlns="http://www.w3.org/2000/svg" xmlns:xlink="http://www.w3.org/1999/xlink" x="0px" y="0px"
	 width="130.608px" height="51.905px" viewBox="0 0 130.608 51.905" enable-background="new 0 0 130.608 51.905"
	 xml:space="preserve">
<g>
	<defs>
		<rect id="SVGID_1_" y="0" width="130.608" height="51.906"/>
	</defs>
	<clipPath id="SVGID_2_">
		<use xlink:href="#SVGID_1_"  overflow="visible"/>
	</clipPath>
	<path clip-path="url(#SVGID_2_)" fill="#808285" d="M113.714,43.11c-0.131-0.547-0.174-12.311-0.06-13.362
		c1.438-0.089,2.887-0.029,4.397-0.034c0.08,1.513,0.025,2.969,0.035,4.422c0.01,1.458,0.002,2.915,0.002,4.354
		c0.534,0.146,7.102,0.174,7.893,0.037c0.01-2.897-0.003-5.811,0.007-8.789c1.532-0.066,3.006-0.019,4.46-0.031
		c0.155,0.586,0.22,19.692,0.092,21.804c-0.138,0.214-0.304,0.376-0.603,0.375c-1.274-0.007-2.549-0.003-3.899-0.003
		c-0.02-0.275-0.05-0.515-0.051-0.755c-0.003-2.402-0.002-4.805-0.002-7.207v-0.768c-0.279-0.017-0.522-0.041-0.766-0.041
		c-3.573-0.004-7.146-0.002-10.719-0.002H113.714z"/>
	<path clip-path="url(#SVGID_2_)" fill="#808285" d="M99.963,34.051c-0.142,0.035-0.403,0.16-0.661,0.152
		c-0.809-0.026-1.508,0.301-2.213,0.604c-0.44,0.188-0.818,0.482-1.158,0.83c-0.229,0.235-0.546,0.391-0.767,0.632
		c-0.262,0.283-0.473,0.615-0.687,0.938c-0.122,0.186-0.214,0.394-0.309,0.595c-0.138,0.293-0.321,0.579-0.388,0.889
		c-0.118,0.538-0.434,1.038-0.336,1.62c0.023,0.143,0.01,0.293,0.002,0.438c-0.072,1.21,0.273,2.325,0.882,3.351
		c0.746,1.256,1.808,2.187,3.177,2.779c1.211,0.524,2.481,0.573,3.766,0.48c0.345-0.025,0.677-0.192,1.017-0.287
		c0.878-0.246,1.544-0.86,2.318-1.287c0.106-0.059,0.206-0.155,0.273-0.256c0.423-0.633,1.001-1.158,1.316-1.866
		c0.088-0.198,0.232-0.37,0.366-0.575c1.319,0.473,2.583,0.924,3.919,1.401c0.115,0.14,0.103,0.362-0.009,0.577
		c-0.592,1.156-1.221,2.273-2.175,3.21c-0.469,0.46-0.942,0.922-1.444,1.337c-0.649,0.537-1.396,0.961-2.191,1.282
		c-0.557,0.225-1.135,0.38-1.711,0.548c-0.562,0.163-1.146,0.089-1.66,0.268c-0.465,0.161-0.914,0.216-1.361,0.158
		c-0.725-0.092-1.468-0.137-2.17-0.285c-0.626-0.133-1.272-0.301-1.887-0.601c-0.764-0.372-1.486-0.789-2.214-1.219
		c-0.925-0.546-1.593-1.341-2.299-2.095c-0.389-0.415-0.643-0.951-0.959-1.43c-0.178-0.267-0.359-0.531-0.57-0.77
		c-0.096-0.225-0.203-0.444-0.286-0.674c-0.282-0.771-0.563-1.54-0.577-2.376c-0.004-0.196-0.104-0.391-0.141-0.591
		c-0.12-0.655-0.173-1.312,0.021-1.964c0.035-0.118,0.122-0.237,0.11-0.348c-0.071-0.696,0.088-1.371,0.315-2.002
		c0.198-0.555,0.264-1.165,0.758-1.64c0.387-0.37,0.583-0.933,0.862-1.412c0.021-0.034,0.014-0.094,0.041-0.115
		c0.797-0.662,1.14-1.757,2.169-2.194c0.876-0.907,2.069-1.287,3.174-1.804c0.456-0.215,0.951-0.436,1.497-0.398
		c0.125,0.009,0.263,0.007,0.378-0.036c1.153-0.427,2.345-0.135,3.518-0.182c0.676,0.351,1.494,0.168,2.211,0.646
		c0.211,0.35-0.201,0.648-0.295,1.009c-0.107,0.409-0.293,0.8-0.44,1.199c-0.191,0.519-0.369,1.041-0.575,1.553
		c-0.051,0.127-0.188,0.221-0.266,0.308c-0.409-0.082-0.771-0.164-1.135-0.226C100.806,34.161,100.438,34.117,99.963,34.051"/>
	<path clip-path="url(#SVGID_2_)" fill="#808285" d="M7.949,9.286C7.875,9.205,7.804,9.119,7.726,9.041
		C7.636,8.949,7.54,8.864,7.447,8.777c0.199-0.162,0.412-0.31,0.594-0.488c0.503-0.493,0.851-1.093,1.17-1.71
		c0.405-0.785,0.454-1.602-0.018-2.344C8.804,3.624,8.378,2.955,7.468,2.993c-0.08-0.305-0.329-0.217-0.537-0.222L6.927,2.769
		C6.85,2.688,6.776,2.541,6.695,2.538C6.176,2.515,5.656,2.515,5.136,2.536C5.054,2.54,4.978,2.685,4.899,2.764H4.898
		C4.655,2.767,4.409,2.746,4.171,2.781C4.06,2.798,3.967,2.926,3.866,3.003C3.708,3.031,3.551,3.06,3.405,3.085v12.763
		c0.526,0.199,1.052,0.345,1.522,0.593c0.358,0.189,0.707,0.236,1.09,0.239c0.274,0.002,0.59-0.043,0.812,0.073
		c0.514,0.27,1.08,0.243,1.543,0.104c0.547-0.164,1.08-0.138,1.618-0.199c0.189,0.019,0.367,0.019,0.4-0.227
		c0.079-0.009,0.158-0.017,0.236-0.025c0.093-0.075,0.185-0.149,0.277-0.224c0.638-0.026,0.998-0.509,1.199-0.956
		c0.16-0.356,0.362-0.674,0.566-0.994v-1.813c0.003-0.416-0.158-0.757-0.494-1.015c-0.006-0.119-0.013-0.238-0.019-0.357
		c-0.052-0.279-0.225-0.444-0.501-0.511c-0.075-0.035-0.163-0.056-0.224-0.107c-0.699-0.599-1.505-0.918-2.437-0.913
		c-0.103-0.077-0.198-0.205-0.31-0.22C8.444,9.262,8.196,9.288,7.952,9.288L7.949,9.286z M3.117,0.01
		c1.697,0,3.394,0.001,5.091,0.001C8.306,0.09,8.394,0.208,8.506,0.237c0.15,0.04,0.318,0.011,0.478,0.012
		c0.306,0.188,0.634,0.298,1,0.27c0.132,0.281,0.403,0.367,0.668,0.463c0.125,0.021,0.251,0.041,0.389,0.064
		c0.133,0.194,0.217,0.393,0.486,0.519c0.367,0.171,0.585,0.558,0.774,0.938c0.371,0.743,0.694,1.491,0.648,2.342
		c-0.015,0.268,0.031,0.548-0.192,0.766c-0.027,0.027-0.047,0.077-0.043,0.114c0.05,0.596-0.311,1.049-0.55,1.544
		c-0.246,0.056-0.28,0.206-0.18,0.432c0.229,0.097,0.47,0.199,0.711,0.301c0.616,0.09,1.11,0.431,1.602,0.766
		c0.581,0.396,0.92,1.004,1.316,1.55c0.206,0.285,0.215,0.701,0.386,1.02c0.291,0.545,0.245,1.12,0.252,1.695
		c0.004,0.375-0.02,0.751,0.006,1.125c0.039,0.555-0.128,1.041-0.378,1.534c-0.192,0.378-0.335,0.765-0.584,1.131
		c-0.393,0.577-0.818,1.069-1.446,1.397c-0.328,0.171-0.616,0.415-0.942,0.592c-0.363,0.198-0.725,0.381-1.176,0.396
		c-0.34,0.011-0.672,0.197-1.012,0.29c-0.257,0.071-0.521,0.161-0.784,0.165c-1.166,0.019-2.332,0.009-3.499,0.009
		c-0.102-0.077-0.197-0.204-0.309-0.22c-0.238-0.034-0.485-0.01-0.728-0.01c-0.081-0.005-0.162-0.01-0.243-0.015
		c-0.064-0.313-0.311-0.236-0.522-0.236c-0.447,0.066-0.82-0.151-1.191-0.329c-0.568-0.272-1.106-0.264-1.679-0.007
		c-0.519,0.233-1.065,0.404-1.602,0.603C0.002,18.92-0.06,2.125,0.071,0.881c0.173-0.27,0.418-0.407,0.746-0.372
		C1.19,0.548,1.522,0.442,1.834,0.255c0.305-0.003,0.61-0.007,0.915-0.009C2.925,0.246,3.075,0.21,3.117,0.01"/>
	<path clip-path="url(#SVGID_2_)" fill="#808285" d="M30.344,29.68c0.37,0.343,0.662,0.601,0.94,0.873
		c1.685,1.651,3.363,3.31,5.053,4.957c0.475,0.463,1.003,0.875,1.472,1.343c1.459,1.457,2.897,2.935,4.354,4.394
		c0.17,0.17,0.309,0.492,0.743,0.261V29.716c1.469-0.016,2.86-0.021,4.238,0.007c0.15,0.506,0.171,21.272,0.022,21.918
		c-0.155-0.133-0.299-0.241-0.426-0.366c-3.148-3.089-6.288-6.185-9.443-9.268c-1.417-1.385-2.877-2.726-4.289-4.114
		c-0.919-0.905-1.787-1.86-2.664-2.779V29.68z"/>
	<path clip-path="url(#SVGID_2_)" fill="#808285" d="M0.149,43.09C0.01,42.517,0,30.361,0.125,29.79
		c0.562-0.121,16.261-0.117,16.835,0.015v4.14c-0.301,0.015-0.57,0.042-0.84,0.042c-3.592,0.003-7.185,0.002-10.777,0
		c-0.342,0-0.691-0.037-0.916,0.389v4.188c0.246,0.017,0.471,0.045,0.695,0.046c1.828,0.003,3.656,0.002,5.485,0.002h0.764
		c0.033,0.751,0.016,1.433,0.018,2.114c0.003,0.668,0.001,1.336,0.001,2.067c-0.111,0.083-0.245,0.183-0.397,0.297H0.149z"/>
	<path clip-path="url(#SVGID_2_)" fill="#808285" d="M69.878,43.085V29.831c0.022-0.022,0.037-0.038,0.053-0.052
		c0.016-0.013,0.032-0.032,0.05-0.035c0.084-0.015,0.168-0.036,0.251-0.036c5.357,0,10.714,0,16.07,0.003
		c0.083,0,0.167,0.026,0.244,0.039c0.151,0.427,0.2,3.097,0.068,4.179c-0.249,0.019-0.514,0.057-0.778,0.057
		c-3.486,0.004-6.973,0.002-10.458,0.002h-0.743c-0.287,0.148-0.445,0.331-0.442,0.648c0.012,1.231,0.007,2.464,0.013,3.695
		c0,0.06,0.029,0.117,0.063,0.238c0.213,0.013,0.438,0.039,0.664,0.04c1.786,0.003,3.571,0,5.357,0.003
		c0.228,0,0.457,0.02,0.725,0.033v4.117c-0.073,0.076-0.198,0.211-0.302,0.322H69.878z"/>
	<path clip-path="url(#SVGID_2_)" fill="#808285" d="M73.668,16.927c0.307,0.346,0.718,0.346,1.023-0.001
		c0.306-0.002,0.611-0.003,0.916-0.006c0.176-0.001,0.325-0.041,0.365-0.241c0.211-0.009,0.422-0.019,0.633-0.029
		c-0.01-0.029-0.021-0.058-0.031-0.087c0.366-0.178,0.733-0.355,1.114-0.54c0.127-0.78,0.086-4.137-0.066-4.58
		c-0.41-0.018-0.824-0.1-1.227,0.132c-0.134,0.077-0.326,0.067-0.493,0.076c-0.298,0.015-0.599-0.005-0.892,0.031
		c-0.118,0.015-0.221,0.141-0.331,0.216c-0.231,0.007-0.469-0.01-0.694,0.032c-0.117,0.022-0.214,0.148-0.319,0.228
		c-0.145,0.022-0.303,0.014-0.431,0.072c-0.819,0.373-1.568,0.841-2.125,1.688c0,0.366-0.003,0.821,0.001,1.276
		c0.002,0.412,0.2,0.727,0.516,0.981c0.076,0.264,0.239,0.438,0.525,0.481c0.16,0.011,0.321,0.021,0.481,0.032
		c0.103,0.077,0.196,0.203,0.308,0.22C73.179,16.945,73.426,16.924,73.668,16.927L73.668,16.927z M77.505,7.768
		c-0.007-0.079-0.013-0.157-0.02-0.236c-0.003-0.206,0.075-0.448-0.242-0.509c-0.277-0.328-0.555-0.657-0.785-0.931
		c-0.859-0.117-1.596-0.43-2.388-0.306c-0.243,0.038-0.482,0.106-0.726,0.152c-0.164,0.031-0.332,0.07-0.497,0.067
		c-0.472-0.012-0.937,0.023-1.326,0.306c-0.278,0.204-0.588,0.207-0.901,0.23C70.346,6.68,70,6.704,69.838,7.019
		c-0.554-0.034-0.702-0.168-0.755-0.683c-0.011-0.103-0.011-0.207-0.018-0.311c-0.005-0.204,0.091-0.453-0.237-0.512l0.001,0.001
		c-0.062-0.262,0.146-0.608-0.249-0.764c0.001-0.071,0.003-0.142,0.004-0.213c0.228-0.204,0.607-0.197,0.754-0.518
		c0.359-0.096,0.743-0.142,1.07-0.301c0.315-0.154,0.626-0.206,0.964-0.232c0.093-0.007,0.176-0.14,0.263-0.215
		c0.234-0.005,0.471,0.015,0.699-0.025c0.118-0.021,0.218-0.146,0.327-0.223c1.354,0,2.708,0,4.061,0.001
		c0.064,0.071,0.113,0.18,0.192,0.208c0.28,0.101,0.571,0.173,0.856,0.257c0.394-0.001,0.702,0.134,1.03,0.381
		c0.327,0.247,0.769,0.413,0.937,0.777c0.123,0.268,0.326,0.349,0.452,0.528c0.179,0.34,0.356,0.681,0.534,1.021
		c0.033-0.009,0.065-0.017,0.098-0.025c0,0.27-0.008,0.54,0.002,0.81c0.01,0.308-0.031,0.616,0.174,0.903
		c0.084,0.118,0.06,0.321,0.06,0.486c0.003,3.401,0,6.802,0.005,10.203c0.001,0.351-0.031,0.666-0.43,0.86
		c-0.477-0.176-1.002-0.32-1.476-0.56c-0.539-0.272-1.017-0.294-1.543,0.015c-0.261,0.153-0.581,0.208-0.875,0.307
		c-0.208,0.004-0.462-0.089-0.518,0.237c-0.241,0.004-0.486-0.014-0.723,0.024c-0.112,0.017-0.205,0.143-0.307,0.22
		c-1.014-0.001-2.027-0.003-3.042-0.004c-0.108-0.077-0.209-0.201-0.327-0.222c-0.228-0.039-0.465-0.019-0.698-0.023
		c-0.087-0.076-0.164-0.196-0.263-0.218c-0.204-0.046-0.421-0.039-0.56-0.049c-0.539-0.357-1.069-0.624-1.485-1.009
		c-0.312-0.289-0.656-0.61-0.764-1.068c-0.028-0.119-0.026-0.286-0.105-0.345c-0.439-0.331-0.404-0.791-0.399-1.248
		c0.004-0.521,0.009-1.041,0.013-1.562c0.395-0.149,0.188-0.493,0.252-0.749c0.057-0.028,0.158-0.053,0.161-0.084
		c0.03-0.459,0.308-0.79,0.585-1.121c0.122-0.146,0.247-0.29,0.454-0.382c0.045-0.155,0.091-0.311,0.122-0.416
		c0.573-0.378,1.105-0.728,1.689-1.113c0.441,0.059,0.857-0.19,1.293-0.387c0.166-0.075,0.352-0.106,0.528-0.156
		c0.206-0.008,0.461,0.089,0.521-0.234l-0.001,0.001c0.254-0.007,0.512,0.005,0.761-0.033c0.097-0.015,0.176-0.143,0.262-0.219
		c0.335-0.006,0.672-0.013,1.007-0.019c0.208-0.007,0.471,0.062,0.612-0.037c0.386-0.267,0.8-0.177,1.208-0.203
		c0.223-0.015,0.444-0.027,0.704-0.043C77.684,8.358,77.969,7.994,77.505,7.768"/>
	<path clip-path="url(#SVGID_2_)" fill="#808285" d="M52.946,29.733h12.182c0.157,0.452,0.185,3.501,0.029,4.247
		c-2.517,0.021-5.054-0.006-7.523,0.013c-0.082,0.077-0.1,0.089-0.112,0.106c-0.012,0.017-0.022,0.036-0.026,0.056
		c-0.015,0.082-0.04,0.164-0.04,0.246c-0.002,5.698-0.002,11.395-0.002,17.063c-0.159,0.254-0.319,0.422-0.619,0.42
		c-1.232-0.009-2.465-0.007-3.697-0.012c-0.058,0-0.117-0.036-0.169-0.052C52.844,51.339,52.813,30.511,52.946,29.733"/>
	<path clip-path="url(#SVGID_2_)" fill="#808285" d="M24.925,16.92c0.244-0.001,0.491,0.022,0.73-0.013
		c0.111-0.016,0.205-0.144,0.307-0.222c0.688,0.081,1.147-0.433,1.719-0.605c0.135-0.896,0.091-4.188-0.082-4.683
		c-0.845,0.104-1.707,0.21-2.57,0.317c-0.019,0.002-0.036,0.021-0.056,0.027c-0.548,0.177-1.096,0.354-1.643,0.531
		c-0.316,0.112-0.527,0.444-0.94,0.41c-0.286,0.043-0.451,0.214-0.526,0.481c-0.276,0.102-0.448,0.29-0.506,0.579
		c-0.028,0.139-0.053,0.283-0.11,0.412c-0.194,0.439-0.169,0.85,0.002,1.305c0.204,0.544,0.637,0.847,1.025,1.198
		c0.214,0.012,0.403,0.024,0.593,0.035c0.086,0.075,0.161,0.178,0.261,0.217c0.131,0.051,0.32,0.006,0.418,0.083
		c0.335,0.264,0.714,0.159,1.079,0.172C24.792,17.17,24.904,17.097,24.925,16.92L24.925,16.92z M24.425,9.033
		c0.251-0.006,0.502-0.012,0.753-0.019c0.162,0.002,0.331,0.035,0.482-0.003c0.111-0.028,0.197-0.15,0.294-0.229h-0.001
		c0.566-0.006,1.132-0.012,1.76-0.019c0-0.406,0.013-0.733-0.01-1.058c-0.005-0.07-0.137-0.131-0.21-0.196
		c-0.146-0.893-0.651-1.331-1.539-1.508c-0.616-0.123-1.221-0.284-1.854-0.215c-0.264,0.028-0.521,0.122-0.785,0.158
		c-0.312,0.042-0.628,0.052-0.942,0.081c-0.198,0.018-0.445-0.057-0.518,0.233c-0.262,0.061-0.615-0.137-0.759,0.259
		c-0.39-0.048-0.668,0.216-0.972,0.371c-0.249,0.128-0.46,0.162-0.755,0.063c-0.019-0.57-0.243-1.079-0.5-1.595
		c-0.131-0.264-0.023-0.644-0.023-1.029c0.318-0.107,0.644-0.218,0.971-0.329c0.208-0.002,0.461,0.086,0.506-0.243l0.005-0.003
		c0.208-0.005,0.456,0.075,0.527-0.232c0.164-0.008,0.328-0.015,0.492-0.023c0.211,0.001,0.461,0.085,0.513-0.24l0.002-0.001
		c0.243-0.002,0.489,0.02,0.727-0.016c0.111-0.017,0.205-0.144,0.307-0.221c1.271,0.001,2.542,0.001,3.813,0.002
		c0.099,0.078,0.187,0.195,0.299,0.225c0.15,0.04,0.317,0.011,0.477,0.012c0.575,0.277,1.237,0.373,1.752,0.767
		c0.292,0.224,0.577,0.484,0.785,0.782c0.244,0.351,0.398,0.761,0.6,1.141c0.024,0.044,0.107,0.058,0.163,0.085
		c0.007,0.228-0.01,0.459,0.031,0.68c0.022,0.115,0.149,0.212,0.228,0.317c0.103,4.555,0.053,11.849-0.093,12.39
		c-0.114-0.018-0.237-0.021-0.349-0.057c-0.135-0.044-0.263-0.169-0.391-0.165c-0.387,0.01-0.683-0.124-0.965-0.381
		c-0.119-0.108-0.348-0.122-0.531-0.136c-0.273-0.021-0.549-0.006-0.791-0.006c-0.218,0.176-0.397,0.32-0.59,0.476
		c-0.199,0.015-0.415,0.008-0.619,0.054c-0.1,0.022-0.178,0.139-0.265,0.213c-0.233,0.007-0.47-0.01-0.697,0.031
		c-0.119,0.021-0.22,0.144-0.329,0.221c-1.013,0-2.026,0.001-3.039,0.002c-0.101-0.077-0.194-0.205-0.305-0.221
		c-0.237-0.037-0.483-0.016-0.725-0.018c-0.307-0.188-0.637-0.294-1.003-0.268c-0.097-0.249-0.259-0.424-0.54-0.466
		c-0.124-0.019-0.249-0.038-0.334-0.05c-0.3-0.334-0.549-0.666-0.856-0.935c-0.382-0.335-0.837-1.11-0.839-1.611
		c-0.003-0.891,0.009-1.783,0.016-2.674c0.292-0.072,0.234-0.307,0.245-0.51c0.078-0.089,0.157-0.177,0.236-0.265
		c0.017-0.123,0.034-0.246,0.035-0.254c0.352-0.391,0.669-0.679,0.904-1.021c0.268-0.391,0.708-0.538,1.045-0.826
		c0.154-0.131,0.347-0.22,0.524-0.326c0.104-0.062,0.206-0.136,0.319-0.179c0.269-0.104,0.568-0.154,0.81-0.297
		c0.307-0.182,0.624-0.232,0.964-0.236c0.209-0.002,0.461,0.089,0.516-0.237c0.242-0.004,0.488,0.015,0.724-0.022
		C24.231,9.238,24.324,9.111,24.425,9.033"/>
	<path clip-path="url(#SVGID_2_)" fill="#808285" d="M40.633,3.028h3.55c0.158,0.386,0.506,0.184,0.771,0.241
		c0.029,0.055,0.053,0.156,0.086,0.159c0.468,0.034,0.81,0.306,1.151,0.576c0.306,0.242,0.56,0.538,0.831,0.816
		c0.581,0.596,0.596,1.423,0.954,2.107c0.054,0.103,0.037,0.246,0.037,0.371c0.004,3.841,0.006,7.683,0.007,11.525
		c0,0.082-0.019,0.164-0.029,0.241c-0.434,0.159-2.489,0.191-3.269,0.041c-0.011-0.226-0.032-0.469-0.032-0.712
		c-0.002-3.132,0-6.263-0.003-9.395c0-0.39,0.04-0.775-0.191-1.147c-0.109-0.175-0.057-0.447-0.068-0.565
		c-0.213-0.258-0.326-0.514-0.519-0.605c-0.441-0.208-0.72-0.699-1.299-0.668c-0.551,0.03-1.105,0.016-1.657-0.001
		c-0.58-0.017-1.088,0.151-1.628,0.362c-0.529,0.207-0.981,0.506-1.516,0.794v11.903c-0.481,0.146-2.468,0.181-3.408,0.063
		c-0.014-0.224-0.041-0.464-0.041-0.704c-0.003-4.113-0.002-8.226-0.002-12.339c0-0.773-0.003-1.545,0.002-2.318
		c0.002-0.224,0.026-0.447,0.043-0.72c0.793,0.373,1.532,0.699,2.248,1.068c0.313,0.161,0.578,0.131,0.898,0.042
		c0.641-0.179,1.181-0.609,1.862-0.684c0.155-0.017,0.298-0.142,0.446-0.217c0.159-0.002,0.326,0.026,0.475-0.014
		C40.444,3.219,40.533,3.105,40.633,3.028"/>
	<path clip-path="url(#SVGID_2_)" fill="#808285" d="M69.946,51.847c-0.138-0.522-0.153-3.768-0.023-4.419h16.686
		c0.023,0.146,0.059,0.265,0.059,0.383c0.005,1.106-0.004,2.213,0.009,3.319c0.003,0.32-0.076,0.572-0.361,0.717H69.946z"/>
	<path clip-path="url(#SVGID_2_)" fill="#808285" d="M59.253,18.68c0.069,0.124,0.137,0.247,0.249,0.447
		c-0.724,0.141-1.428,0.045-2.122,0.062c-0.692,0.017-1.385,0.004-2.022,0.004c-0.268-0.377-0.49-0.689-0.712-1.001
		c-0.052-0.278-0.225-0.442-0.498-0.514c-0.084-0.114-0.157-0.237-0.253-0.341c-0.459-0.5-0.871-1.05-1.349-1.521
		c-0.362-0.357-0.655-0.747-0.959-1.138c-0.056-0.275-0.231-0.437-0.499-0.511c-0.171-0.206-0.337-0.414-0.512-0.616
		c-0.542-0.628-1.096-1.246-1.622-1.887c-0.102-0.124-0.184-0.365-0.13-0.493c0.115-0.276,0.302-0.532,0.5-0.762
		c0.404-0.471,0.834-0.921,1.253-1.379c0.267-0.075,0.445-0.235,0.499-0.511c0.303-0.346,0.444-0.827,0.907-1.038
		c0.069-0.418,0.592-0.468,0.716-0.876c0.064-0.213,0.332-0.364,0.502-0.548c0.318-0.345,0.632-0.693,0.947-1.04
		c0.273-0.071,0.445-0.236,0.498-0.513c0.311-0.39,0.497-0.889,1.007-1.103c0.13-0.055,0.263-0.146,0.395-0.147
		c1.146-0.008,2.292-0.001,3.438,0.007c0.073,0,0.147,0.047,0.248,0.083c-0.176,0.244-0.329,0.457-0.482,0.67
		c-0.27,0.072-0.444,0.235-0.501,0.509c-0.172,0.204-0.341,0.412-0.517,0.613c-0.809,0.922-1.587,1.873-2.484,2.718
		c-0.042,0.039-0.049,0.113-0.072,0.17c-0.268,0.075-0.444,0.236-0.499,0.511c-0.228,0.264-0.456,0.528-0.684,0.792
		c-0.418,0.486-0.858,0.957-1.241,1.468c-0.133,0.177-0.124,0.456-0.127,0.683c0.418,0.795,1.147,1.321,1.617,2.051
		c0.13,0.201,0.36,0.438,0.569,0.582c0.408,0.28,0.587,0.707,0.886,1.052c0.057,0.274,0.232,0.437,0.499,0.511
		c0.123,0.161,0.239,0.326,0.369,0.48c0.285,0.338,0.546,0.703,0.873,0.996c0.333,0.301,0.554,0.671,0.814,1.018
		C58.807,18.445,58.982,18.608,59.253,18.68"/>
	<path clip-path="url(#SVGID_2_)" fill="#808285" d="M25.897,38.606v13.006c-0.151,0.074-0.344,0.252-0.542,0.256
		c-1.292,0.024-2.585,0.013-3.835,0.013c-0.059-0.06-0.075-0.074-0.088-0.091c-0.012-0.015-0.028-0.032-0.033-0.051
		c-0.015-0.061-0.037-0.122-0.037-0.184c-0.004-4.151-0.005-8.304-0.005-12.457c0-0.124,0.017-0.248,0.032-0.446
		C22.866,38.564,24.34,38.633,25.897,38.606"/>
	<path clip-path="url(#SVGID_2_)" fill="#808285" d="M65.234,19.158h-3.311c-0.134-0.475-0.177-14.916-0.046-15.863
		c1.074-0.099,2.164-0.047,3.327-0.025c0.021,0.294,0.058,0.555,0.059,0.816c0.004,4.78,0.005,9.56,0.004,14.34
		C65.268,18.651,65.248,18.876,65.234,19.158"/>
	<path clip-path="url(#SVGID_2_)" fill="#808285" d="M30.302,47.429h4.537v4.411H30.65c-0.19-0.117-0.353-0.278-0.351-0.573
		C30.307,50.019,30.302,48.769,30.302,47.429"/>
	<path clip-path="url(#SVGID_2_)" fill="#808285" d="M113.614,51.833c-0.021-1.475-0.013-2.918-0.006-4.405h4.441
		c0.086,1.45,0.015,2.895,0.044,4.316C117.595,51.912,114.942,51.961,113.614,51.833"/>
	<path clip-path="url(#SVGID_2_)" fill="#808285" d="M0.074,51.886v-4.389c0.479-0.141,3.6-0.16,4.311-0.02
		c0.03,1.428,0.01,2.871,0.012,4.382C2.927,51.907,1.542,51.873,0.074,51.886"/>
	<path clip-path="url(#SVGID_2_)" fill="#808285" d="M25.896,29.702v4.174c-0.517,0.137-3.798,0.158-4.509,0.027
		c-0.064-1.351-0.024-2.716-0.021-4.159C22.885,29.661,24.371,29.726,25.896,29.702"/>
	<path clip-path="url(#SVGID_2_)" fill="#808285" d="M77.505,7.768c0.464,0.226,0.179,0.591,0.215,0.965
		c-0.26,0.016-0.481,0.028-0.704,0.043c-0.408,0.026-0.822-0.064-1.208,0.203c-0.142,0.099-0.404,0.03-0.612,0.037
		c0.259-0.309,0.593-0.475,1-0.484c0.394-0.008,0.787-0.002,1.257-0.002C77.472,8.239,77.488,8.003,77.505,7.768"/>
	<path clip-path="url(#SVGID_2_)" fill="#808285" d="M27.492,7.509c0.073,0.065,0.206,0.127,0.211,0.197
		c0.022,0.324,0.01,0.651,0.01,1.058c-0.628,0.006-1.194,0.012-1.76,0.019c0.029-0.264,0.231-0.252,0.421-0.254
		c0.332-0.002,0.663-0.001,1.06-0.001C27.456,8.149,27.474,7.829,27.492,7.509"/>
	<path clip-path="url(#SVGID_2_)" fill="#808285" d="M77.771,3.488c-0.286-0.083-0.577-0.156-0.857-0.257
		c-0.079-0.028-0.129-0.137-0.191-0.208h0.955C77.716,3.214,77.743,3.351,77.771,3.488"/>
	<path clip-path="url(#SVGID_2_)" fill="#808285" d="M12.695,8.002c-0.241-0.102-0.483-0.204-0.711-0.301
		c-0.1-0.226-0.067-0.375,0.18-0.432c0.131,0.126,0.263,0.251,0.484,0.462C12.65,7.737,12.672,7.869,12.695,8.002"/>
	<path clip-path="url(#SVGID_2_)" fill="#808285" d="M3.117,0.01c-0.042,0.2-0.192,0.235-0.368,0.236
		c-0.305,0.002-0.61,0.006-0.915,0.009C1.86,0.043,2.013,0.006,2.191,0.007C2.5,0.007,2.808,0.009,3.117,0.01"/>
	<path clip-path="url(#SVGID_2_)" fill="#808285" d="M72.661,3.022c-0.108,0.078-0.208,0.202-0.327,0.223
		c-0.228,0.04-0.465,0.02-0.699,0.025c0.014-0.172,0.117-0.25,0.285-0.25C72.167,3.018,72.414,3.021,72.661,3.022"/>
	<path clip-path="url(#SVGID_2_)" fill="#808285" d="M5.398,19.442c0.243,0,0.49-0.024,0.729,0.01
		c0.111,0.015,0.206,0.143,0.308,0.22c-0.244,0.002-0.493,0.028-0.732-0.006C5.594,19.651,5.5,19.521,5.398,19.442"/>
	<path clip-path="url(#SVGID_2_)" fill="#808285" d="M21.354,19.434c0.242,0.002,0.488-0.019,0.725,0.017
		c0.111,0.017,0.204,0.144,0.305,0.222c-0.245,0.001-0.494,0.026-0.733-0.008C21.543,19.649,21.453,19.515,21.354,19.434"/>
	<path clip-path="url(#SVGID_2_)" fill="#808285" d="M69.338,4.019c-0.146,0.321-0.525,0.313-0.755,0.518V4.056
		C68.861,4.042,69.101,4.031,69.338,4.019"/>
	<path clip-path="url(#SVGID_2_)" fill="#808285" d="M25.424,19.67c0.109-0.077,0.21-0.199,0.329-0.221
		c0.226-0.04,0.464-0.023,0.697-0.03c-0.009,0.175-0.11,0.256-0.281,0.256C25.921,19.676,25.672,19.672,25.424,19.67"/>
	<path clip-path="url(#SVGID_2_)" fill="#808285" d="M71.124,19.426c0.233,0.005,0.471-0.015,0.698,0.024
		c0.119,0.02,0.219,0.144,0.328,0.221c-0.246,0.002-0.493,0.005-0.74,0.004C71.243,19.675,71.139,19.598,71.124,19.426"/>
	<path clip-path="url(#SVGID_2_)" fill="#808285" d="M75.191,19.676c0.102-0.077,0.195-0.203,0.307-0.221
		c0.235-0.038,0.481-0.019,0.724-0.024c-0.097,0.083-0.187,0.221-0.293,0.236C75.688,19.702,75.438,19.677,75.191,19.676"/>
	<path clip-path="url(#SVGID_2_)" fill="#808285" d="M74.189,9.034c-0.087,0.076-0.166,0.204-0.263,0.219
		c-0.25,0.038-0.507,0.026-0.761,0.034c0.094-0.085,0.181-0.226,0.285-0.241C73.692,9.009,73.942,9.034,74.189,9.034"/>
	<path clip-path="url(#SVGID_2_)" fill="#808285" d="M24.425,9.033c-0.101,0.078-0.193,0.205-0.304,0.223
		c-0.236,0.037-0.482,0.018-0.724,0.022c0.098-0.081,0.186-0.217,0.294-0.233C23.931,9.009,24.18,9.033,24.425,9.033"/>
	<path clip-path="url(#SVGID_2_)" fill="#808285" d="M69.838,7.019c0.161-0.315,0.509-0.339,0.781-0.478
		c-0.023,0.138-0.048,0.275-0.083,0.478H69.838z"/>
	<path clip-path="url(#SVGID_2_)" fill="#808285" d="M22.896,3.019c-0.102,0.077-0.196,0.205-0.307,0.221
		c-0.237,0.036-0.484,0.014-0.727,0.016c0.1-0.08,0.192-0.212,0.301-0.228C22.402,2.993,22.65,3.018,22.896,3.019"/>
	<path clip-path="url(#SVGID_2_)" fill="#808285" d="M31.044,7.03c-0.079-0.105-0.206-0.201-0.228-0.317
		c-0.042-0.221-0.024-0.452-0.031-0.679c0.178,0.006,0.256,0.106,0.258,0.271C31.046,6.547,31.044,6.788,31.044,7.03"/>
	<path clip-path="url(#SVGID_2_)" fill="#808285" d="M10.652,0.982C10.387,0.886,10.116,0.8,9.984,0.519h0.583
		C10.601,0.706,10.627,0.844,10.652,0.982"/>
	<path clip-path="url(#SVGID_2_)" fill="#808285" d="M27.485,3.258c-0.16-0.001-0.328,0.028-0.477-0.012
		c-0.112-0.029-0.201-0.147-0.3-0.225C26.87,3.02,27.04,2.989,27.19,3.028C27.301,3.057,27.388,3.178,27.485,3.258"/>
	<path clip-path="url(#SVGID_2_)" fill="#808285" d="M8.984,0.249c-0.16-0.001-0.328,0.028-0.478-0.012
		c-0.112-0.029-0.2-0.147-0.298-0.225C8.369,0.011,8.538-0.02,8.689,0.02C8.8,0.049,8.886,0.169,8.984,0.249"/>
	<path clip-path="url(#SVGID_2_)" fill="#808285" d="M54.148,17.678c0.273,0.072,0.446,0.236,0.498,0.514
		c-0.141-0.023-0.282-0.045-0.446-0.071C54.181,17.957,54.164,17.817,54.148,17.678"/>
	<path clip-path="url(#SVGID_2_)" fill="#808285" d="M59.253,18.68c-0.271-0.072-0.446-0.235-0.499-0.512
		c0.14,0.022,0.281,0.044,0.446,0.069C59.219,18.402,59.236,18.541,59.253,18.68"/>
	<path clip-path="url(#SVGID_2_)" fill="#808285" d="M40.633,3.028c-0.1,0.077-0.189,0.191-0.301,0.22
		c-0.149,0.04-0.316,0.012-0.475,0.014c0.097-0.081,0.182-0.204,0.293-0.232C40.301,2.992,40.471,3.025,40.633,3.028"/>
	<path clip-path="url(#SVGID_2_)" fill="#808285" d="M19.812,18.699c0.281,0.042,0.443,0.218,0.539,0.466H19.9
		C19.867,18.993,19.84,18.846,19.812,18.699"/>
	<path clip-path="url(#SVGID_2_)" fill="#808285" d="M44.954,3.27c-0.265-0.057-0.613,0.144-0.771-0.241
		c0.163-0.003,0.334-0.037,0.486,0.003C44.778,3.06,44.86,3.187,44.954,3.27"/>
	<path clip-path="url(#SVGID_2_)" fill="#808285" d="M55.179,8.535c0.056-0.275,0.231-0.436,0.499-0.51
		c-0.015,0.14-0.031,0.28-0.049,0.447C55.462,8.495,55.321,8.515,55.179,8.535"/>
	<path clip-path="url(#SVGID_2_)" fill="#808285" d="M51.076,8.519c-0.055,0.276-0.232,0.436-0.499,0.511
		c0.015-0.14,0.031-0.28,0.049-0.447C50.792,8.56,50.934,8.539,51.076,8.519"/>
	<path clip-path="url(#SVGID_2_)" fill="#808285" d="M25.954,8.782c-0.097,0.08-0.183,0.201-0.294,0.229
		c-0.151,0.038-0.32,0.006-0.482,0.004C25.336,8.611,25.688,8.836,25.954,8.782"/>
	<path clip-path="url(#SVGID_2_)" fill="#808285" d="M21.096,6.518c0.144-0.396,0.497-0.198,0.759-0.259
		c-0.008,0.17-0.103,0.252-0.272,0.255C21.421,6.517,21.258,6.517,21.096,6.518"/>
	<path clip-path="url(#SVGID_2_)" fill="#808285" d="M68.58,4.75c0.396,0.156,0.188,0.503,0.249,0.764
		c-0.176-0.013-0.255-0.114-0.256-0.28C68.573,5.072,68.577,4.91,68.58,4.75"/>
	<path clip-path="url(#SVGID_2_)" fill="#808285" d="M54.646,4.503c-0.053,0.277-0.225,0.442-0.498,0.514
		c0.016-0.14,0.033-0.279,0.052-0.444C54.364,4.547,54.505,4.525,54.646,4.503"/>
	<path clip-path="url(#SVGID_2_)" fill="#808285" d="M58.751,4.523c0.056-0.274,0.23-0.437,0.5-0.509
		c-0.015,0.141-0.031,0.281-0.05,0.448C59.035,4.484,58.893,4.504,58.751,4.523"/>
	<path clip-path="url(#SVGID_2_)" fill="#808285" d="M67.812,13.178c-0.063,0.256,0.143,0.6-0.251,0.749
		c-0.002-0.16-0.007-0.319-0.006-0.479C67.557,13.282,67.637,13.186,67.812,13.178"/>
	<path clip-path="url(#SVGID_2_)" fill="#808285" d="M51.087,14.167c0.268,0.074,0.443,0.236,0.499,0.511
		c-0.142-0.02-0.283-0.04-0.449-0.064C51.118,14.446,51.103,14.306,51.087,14.167"/>
	<path clip-path="url(#SVGID_2_)" fill="#808285" d="M56.698,15.674c-0.268-0.075-0.442-0.237-0.499-0.511
		c0.142,0.02,0.284,0.04,0.451,0.063C56.668,15.393,56.683,15.534,56.698,15.674"/>
	<path clip-path="url(#SVGID_2_)" fill="#808285" d="M68.828,5.512c0.328,0.059,0.233,0.308,0.238,0.512
		C68.755,5.958,68.833,5.716,68.828,5.512"/>
	<path clip-path="url(#SVGID_2_)" fill="#808285" d="M77.243,7.023c0.318,0.06,0.24,0.303,0.242,0.508
		C77.174,7.468,77.257,7.223,77.243,7.023"/>
	<path clip-path="url(#SVGID_2_)" fill="#808285" d="M20.323,3.755C20.278,4.084,20.025,3.996,19.817,4
		C19.88,3.707,20.122,3.771,20.323,3.755"/>
	<path clip-path="url(#SVGID_2_)" fill="#808285" d="M20.854,3.521c-0.071,0.307-0.318,0.227-0.527,0.231
		C20.396,3.44,20.646,3.526,20.854,3.521"/>
	<path clip-path="url(#SVGID_2_)" fill="#808285" d="M23.396,9.279c-0.055,0.326-0.307,0.235-0.516,0.237
		C22.948,9.216,23.193,9.291,23.396,9.279"/>
	<path clip-path="url(#SVGID_2_)" fill="#808285" d="M73.167,9.286c-0.06,0.323-0.314,0.226-0.521,0.233
		C72.713,9.213,72.96,9.292,73.167,9.286"/>
	<path clip-path="url(#SVGID_2_)" fill="#808285" d="M21.86,3.257c-0.052,0.325-0.303,0.241-0.513,0.24
		C21.413,3.201,21.657,3.271,21.86,3.257"/>
	<path clip-path="url(#SVGID_2_)" fill="#808285" d="M76.221,19.431c0.056-0.325,0.31-0.232,0.518-0.237
		C76.672,19.496,76.426,19.42,76.221,19.431"/>
	<path clip-path="url(#SVGID_2_)" fill="#808285" d="M4.634,19.191c0.211,0.001,0.458-0.077,0.522,0.236
		C4.944,19.429,4.706,19.488,4.634,19.191"/>
	<path clip-path="url(#SVGID_2_)" fill="#808285" d="M18.043,12.919c-0.01,0.203,0.048,0.438-0.245,0.511
		C17.797,13.221,17.708,12.972,18.043,12.919"/>
	<path clip-path="url(#SVGID_2_)" fill="#808285" d="M18.279,12.655c-0.079,0.088-0.158,0.176-0.236,0.264
		C18.121,12.831,18.2,12.743,18.279,12.655"/>
	<path clip-path="url(#SVGID_2_)" fill="#808285" d="M6.927,2.769C6.251,2.767,5.575,2.766,4.899,2.764
		C4.978,2.685,5.054,2.54,5.136,2.536c0.519-0.02,1.04-0.02,1.559,0.001C6.776,2.541,6.85,2.688,6.927,2.769"/>
	<path clip-path="url(#SVGID_2_)" fill="#808285" d="M12.668,12.419c-0.164-0.121-0.327-0.241-0.494-0.364v-0.651
		C12.51,11.663,12.67,12.002,12.668,12.419"/>
	<path clip-path="url(#SVGID_2_)" fill="#808285" d="M8.993,9.516C8.747,9.518,8.498,9.545,8.257,9.513
		c-0.11-0.015-0.204-0.147-0.305-0.226c0.244,0,0.492-0.025,0.731,0.009C8.795,9.311,8.89,9.439,8.993,9.516"/>
	<path clip-path="url(#SVGID_2_)" fill="#808285" d="M7.949,9.286H7.288C7.176,9.014,7.155,8.842,7.446,8.777
		c0.094,0.088,0.19,0.173,0.28,0.263C7.804,9.119,7.875,9.204,7.949,9.286"/>
	<path clip-path="url(#SVGID_2_)" fill="#808285" d="M4.898,2.764c-0.099,0.08-0.19,0.214-0.298,0.23
		c-0.24,0.035-0.489,0.01-0.734,0.009C3.967,2.926,4.06,2.798,4.171,2.781C4.409,2.746,4.655,2.767,4.898,2.764"/>
	<path clip-path="url(#SVGID_2_)" fill="#808285" d="M12.154,11.047c-0.14-0.022-0.281-0.044-0.443-0.07
		c-0.021-0.163-0.039-0.302-0.057-0.441C11.93,10.604,12.103,10.768,12.154,11.047"/>
	<path clip-path="url(#SVGID_2_)" fill="#808285" d="M7.468,2.993C7.256,2.997,7.006,3.088,6.931,2.771
		C7.139,2.777,7.388,2.689,7.468,2.993"/>
	<path clip-path="url(#SVGID_2_)" fill="#808285" d="M9.99,16.659c0.04-0.234,0.212-0.244,0.4-0.227
		C10.357,16.678,10.179,16.677,9.99,16.659"/>
	<path clip-path="url(#SVGID_2_)" fill="#808285" d="M10.626,16.406c0.092-0.074,0.184-0.149,0.277-0.223
		C10.81,16.257,10.718,16.332,10.626,16.406"/>
	<path clip-path="url(#SVGID_2_)" fill="#808285" d="M74.692,16.927c0.024-0.212,0.177-0.249,0.354-0.248
		c0.31,0,0.617,0,0.926,0.001c-0.04,0.2-0.19,0.24-0.365,0.241C75.302,16.924,74.997,16.925,74.692,16.927"/>
	<path clip-path="url(#SVGID_2_)" fill="#808285" d="M72.635,16.688c0.246-0.002,0.497-0.029,0.739,0.004
		c0.107,0.015,0.197,0.153,0.294,0.235c-0.241-0.003-0.488,0.018-0.726-0.019C72.83,16.892,72.736,16.766,72.635,16.688"/>
	<path clip-path="url(#SVGID_2_)" fill="#808285" d="M73.668,16.927c0.342,0,0.684-0.001,1.024-0.001
		C74.387,17.273,73.975,17.273,73.668,16.927"/>
	<path clip-path="url(#SVGID_2_)" fill="#808285" d="M74.68,11.898c-0.009,0.172-0.108,0.252-0.277,0.255
		c-0.245,0.003-0.49,0.003-0.736,0.005c0.105-0.08,0.203-0.206,0.318-0.228C74.211,11.888,74.447,11.905,74.68,11.898"/>
	<path clip-path="url(#SVGID_2_)" fill="#808285" d="M71.627,16.175c0.142,0.014,0.283,0.028,0.454,0.046
		c0.025,0.159,0.049,0.297,0.071,0.435C71.865,16.613,71.702,16.439,71.627,16.175"/>
	<path clip-path="url(#SVGID_2_)" fill="#808285" d="M22.868,16.692c0.409-0.012,0.8-0.052,1.199,0.177
		c0.221,0.126,0.567,0.042,0.857,0.052c-0.02,0.176-0.131,0.249-0.298,0.243c-0.366-0.013-0.744,0.092-1.08-0.172
		c-0.098-0.077-0.286-0.032-0.417-0.083C23.028,16.87,22.954,16.767,22.868,16.692"/>
	<path clip-path="url(#SVGID_2_)" fill="#808285" d="M24.925,16.92c0.1-0.08,0.192-0.214,0.301-0.229
		c0.241-0.033,0.49-0.007,0.736-0.006c-0.102,0.078-0.196,0.205-0.307,0.222C25.416,16.942,25.169,16.919,24.925,16.92"/>
	<path clip-path="url(#SVGID_2_)" fill="#808285" d="M22.39,12.682c-0.023,0.138-0.046,0.275-0.072,0.434
		c-0.17,0.018-0.312,0.032-0.454,0.047C21.938,12.896,22.104,12.725,22.39,12.682"/>
</g>
</svg>
