<?xml version="1.0" encoding="utf-8"?>
<!-- Generator: Adobe Illustrator 16.0.0, SVG Export Plug-In . SVG Version: 6.00 Build 0)  -->
<!DOCTYPE svg PUBLIC "-//W3C//DTD SVG 1.1//EN" "http://www.w3.org/Graphics/SVG/1.1/DTD/svg11.dtd">
<svg version="1.1" id="Layer_1" xmlns="http://www.w3.org/2000/svg" xmlns:xlink="http://www.w3.org/1999/xlink" x="0px" y="0px"
	 width="32.403px" height="48.895px" viewBox="0 0 32.403 48.895" enable-background="new 0 0 32.403 48.895" xml:space="preserve">
<g>
	<defs>
		<rect id="SVGID_1_" width="32.403" height="48.895"/>
	</defs>
	<clipPath id="SVGID_2_">
		<use xlink:href="#SVGID_1_"  overflow="visible"/>
	</clipPath>
	<path clip-path="url(#SVGID_2_)" fill="#C1A426" d="M13.186,31.342c-0.962-1.169-1.892-2.298-2.82-3.428
		c-0.307-0.372-0.62-0.74-0.912-1.123c-0.33-0.435-0.19-0.959,0.288-1.147c0.31-0.123,0.611-0.063,0.864,0.21
		c0.275,0.299,0.528,0.615,0.785,0.928c0.475,0.577,0.945,1.156,1.42,1.733c0.107,0.128,0.226,0.247,0.365,0.399
		c0.182-0.233,0.334-0.428,0.486-0.623c1.653-2.121,3.306-4.244,4.96-6.365c0.076-0.098,0.155-0.196,0.249-0.278
		c0.268-0.234,0.703-0.25,0.973-0.044c0.295,0.224,0.387,0.587,0.222,0.907c-0.042,0.082-0.103,0.155-0.159,0.229
		c-2.169,2.783-4.338,5.566-6.508,8.349C13.341,31.162,13.28,31.23,13.186,31.342"/>
	<path clip-path="url(#SVGID_2_)" fill="#C1A426" d="M28.597,4.429C27.992,4.43,27.67,3.9,27.929,3.477
		c0.062-0.102,0.157-0.191,0.253-0.27c0.674-0.562,1.352-1.12,2.027-1.68c0.19-0.157,0.397-0.247,0.658-0.19
		c0.464,0.102,0.676,0.591,0.41,0.966c-0.053,0.075-0.122,0.142-0.194,0.202c-0.688,0.569-1.377,1.139-2.074,1.698
		C28.867,4.315,28.686,4.382,28.597,4.429"/>
	<path clip-path="url(#SVGID_2_)" fill="#C1A426" d="M29.666,6.307c-0.072-0.024-0.267-0.053-0.422-0.144
		c-0.224-0.131-0.32-0.449-0.233-0.692c0.088-0.25,0.27-0.413,0.555-0.439c0.683-0.063,1.367-0.123,2.05-0.179
		c0.314-0.026,0.574,0.074,0.715,0.355c0.208,0.417-0.046,0.851-0.544,0.907C31.12,6.188,30.452,6.236,29.666,6.307"/>
	<path clip-path="url(#SVGID_2_)" fill="#C1A426" d="M26.876,3.188c-0.387-0.006-0.66-0.24-0.686-0.565
		c-0.009-0.119,0.007-0.245,0.037-0.362c0.155-0.574,0.311-1.149,0.481-1.72c0.161-0.534,0.703-0.706,1.112-0.366
		c0.171,0.142,0.26,0.327,0.207,0.53c-0.186,0.708-0.376,1.415-0.598,2.113C27.352,3.071,27.106,3.182,26.876,3.188"/>
	<path clip-path="url(#SVGID_2_)" fill="#C1A426" d="M3.268,5.491c-1.06,0-1.922,0.823-1.922,1.836v38.447
		c0,1.012,0.862,1.836,1.922,1.836h21.204c1.061,0,1.922-0.824,1.922-1.836V7.327c0-1.013-0.861-1.836-1.922-1.836H3.268z
		 M24.472,48.895H3.268c-1.802,0-3.268-1.4-3.268-3.121V7.327c0-1.721,1.466-3.121,3.268-3.121h21.204
		c1.803,0,3.269,1.4,3.269,3.121v38.447C27.74,47.495,26.274,48.895,24.472,48.895"/>
</g>
<path fill="#C1A426" d="M4.04,40.919H23.7V12.044H4.04V40.919z M24.943,42.106H2.797V10.858h22.146V42.106z"/>
<g>
	<defs>
		<rect id="SVGID_3_" width="32.403" height="48.895"/>
	</defs>
	<clipPath id="SVGID_4_">
		<use xlink:href="#SVGID_3_"  overflow="visible"/>
	</clipPath>
	<path clip-path="url(#SVGID_4_)" fill="#C1A426" d="M15.456,44.939c0-0.836-0.71-1.514-1.586-1.514s-1.586,0.678-1.586,1.514
		c0,0.837,0.71,1.515,1.586,1.515S15.456,45.776,15.456,44.939"/>
</g>
</svg>
