<?xml version="1.0" encoding="utf-8"?>
<!-- Generator: Adobe Illustrator 16.0.0, SVG Export Plug-In . SVG Version: 6.00 Build 0)  -->
<!DOCTYPE svg PUBLIC "-//W3C//DTD SVG 1.1//EN" "http://www.w3.org/Graphics/SVG/1.1/DTD/svg11.dtd">
<svg version="1.1" id="Layer_1" xmlns="http://www.w3.org/2000/svg" xmlns:xlink="http://www.w3.org/1999/xlink" x="0px" y="0px"
	 width="32.157px" height="38.906px" viewBox="0 0 32.157 38.906" enable-background="new 0 0 32.157 38.906" xml:space="preserve">
<g>
	<defs>
		<rect id="SVGID_1_" width="32.157" height="38.906"/>
	</defs>
	<clipPath id="SVGID_2_">
		<use xlink:href="#SVGID_1_"  overflow="visible"/>
	</clipPath>
	<path clip-path="url(#SVGID_2_)" fill="#C1A426" d="M24.536,14.365v-0.23c0-1.251,0.002-2.501-0.002-3.752
		c-0.001-0.323-0.018-0.647-0.035-0.97c-0.036-0.636-0.169-1.255-0.367-1.858c-0.585-1.776-1.638-3.214-3.159-4.302
		c-1.274-0.912-2.703-1.423-4.265-1.538c-0.846-0.062-1.689-0.004-2.521,0.189c-1.446,0.336-2.717,1.004-3.814,2.001
		c-0.691,0.627-1.261,1.352-1.71,2.171C8.004,7.278,7.647,8.567,7.628,9.938c-0.02,1.435-0.006,2.871-0.006,4.307
		c0,0.038,0.005,0.076,0.008,0.121H24.536z M16.072,37.209c3.902,0,7.806,0,11.709,0c0.166,0,0.334,0.008,0.496-0.019
		c0.887-0.15,1.54-0.626,1.938-1.438c0.185-0.375,0.24-0.775,0.239-1.192c-0.003-5.259-0.002-10.518-0.002-15.777
		c0-0.119-0.001-0.238-0.003-0.357c-0.001-0.053-0.003-0.106-0.011-0.158c-0.095-0.634-0.331-1.209-0.733-1.708
		c-0.506-0.628-1.133-0.988-1.979-0.981c-2.335,0.021-4.671,0.007-7.006,0.007c-5.458,0-10.915,0.002-16.373-0.003
		c-0.496,0-0.943,0.126-1.329,0.43c-0.83,0.655-1.306,1.517-1.308,2.576c-0.014,5.365-0.007,10.73-0.005,16.096
		c0,0.138,0.011,0.277,0.037,0.413c0.182,0.98,0.757,1.631,1.683,1.981c0.308,0.116,0.63,0.131,0.955,0.131
		C8.279,37.209,12.176,37.209,16.072,37.209 M0,34.975V18.301c0.026-0.147,0.051-0.295,0.078-0.443
		c0.192-1.05,0.708-1.909,1.543-2.572c0.784-0.621,1.687-0.909,2.683-0.911c0.477-0.002,0.953,0,1.429-0.001
		c0.057,0,0.115-0.006,0.189-0.01v-0.226c0-1.243-0.006-2.486,0.003-3.729C5.928,9.96,5.959,9.511,5.992,9.063
		c0.046-0.607,0.172-1.2,0.35-1.781c0.842-2.752,2.544-4.801,5.08-6.149c1.214-0.646,2.517-1.006,3.892-1.1
		C15.357,0.03,15.4,0.011,15.443,0h1.27c0.05,0.011,0.099,0.031,0.15,0.034c0.502,0.027,0.997,0.106,1.485,0.22
		c1.63,0.379,3.081,1.111,4.35,2.206c0.956,0.826,1.734,1.792,2.333,2.905c0.664,1.236,1.045,2.559,1.162,3.955
		c0.033,0.408,0.033,0.82,0.035,1.229c0.005,1.197,0.002,2.394,0.002,3.591v0.225c0.083,0.004,0.147,0.009,0.212,0.009
		c0.482,0.001,0.966-0.011,1.447,0.005c0.304,0.009,0.608,0.036,0.904,0.096c0.951,0.196,1.74,0.674,2.365,1.418
		c0.485,0.578,0.795,1.24,0.92,1.986c0.026,0.154,0.052,0.308,0.078,0.462v16.594c-0.013,0.036-0.032,0.072-0.034,0.108
		c-0.018,0.345-0.089,0.681-0.209,1.003c-0.566,1.514-1.636,2.451-3.225,2.783c-0.128,0.027-0.256,0.051-0.384,0.076H3.851
		c-0.161-0.029-0.323-0.053-0.482-0.087c-1.817-0.398-3.039-1.839-3.295-3.42C0.052,35.257,0.025,35.117,0,34.975"/>
	<path clip-path="url(#SVGID_2_)" fill="#C1A426" d="M17.774,26.432c0,0.731,0.001,1.46-0.001,2.187
		c0,0.245-0.022,0.488-0.109,0.722c-0.267,0.716-0.958,1.171-1.723,1.103c-0.954-0.085-1.492-0.845-1.538-1.505
		c-0.009-0.138-0.02-0.277-0.02-0.415c-0.002-0.629-0.001-1.257-0.001-1.886v-0.204c-1.194-1.166-1.023-2.808-0.068-3.728
		c0.987-0.953,2.541-0.954,3.526-0.003C18.798,23.627,18.967,25.268,17.774,26.432"/>
</g>
</svg>
