<?xml version="1.0" encoding="utf-8"?>
<!-- Generator: Adobe Illustrator 16.0.0, SVG Export Plug-In . SVG Version: 6.00 Build 0)  -->
<!DOCTYPE svg PUBLIC "-//W3C//DTD SVG 1.1//EN" "http://www.w3.org/Graphics/SVG/1.1/DTD/svg11.dtd">
<svg version="1.1" id="Layer_1" xmlns="http://www.w3.org/2000/svg" xmlns:xlink="http://www.w3.org/1999/xlink" x="0px" y="0px"
	 width="120.066px" height="47.752px" viewBox="0 0 120.066 47.752" enable-background="new 0 0 120.066 47.752"
	 xml:space="preserve">
<g>
	<defs>
		<rect id="SVGID_1_" y="0" width="120.066" height="47.752"/>
	</defs>
	<clipPath id="SVGID_2_">
		<use xlink:href="#SVGID_1_"  overflow="visible"/>
	</clipPath>
	<path clip-path="url(#SVGID_2_)" fill="#808285" d="M80.356,25.151c-0.177,0.273-0.295,0.453-0.409,0.634
		c-1.209,1.923-2.417,3.847-3.625,5.771c-1.132,1.803-2.266,3.604-3.396,5.408c-0.071,0.113-0.195,0.213-0.142,0.409h1.357
		c0.456,0,0.913,0.007,1.368-0.002c0.452-0.01,0.907,0.043,1.346-0.035C77.059,36.844,80.278,25.67,80.356,25.151 M61.003,37.324
		c0.021-0.043,0.053-0.075,0.051-0.105c-0.229-3.958-0.46-7.917-0.693-11.876c-0.004-0.062-0.021-0.125-0.051-0.305
		c-1.184,4.117-2.335,8.121-3.485,12.126c-0.014,0.048-0.002,0.104-0.002,0.163c0.051,0.015,0.101,0.041,0.151,0.041
		c1.297,0.002,2.595,0.001,3.892-0.002C60.915,37.366,60.963,37.336,61.003,37.324 M93.661,32.304
		c-0.03-0.006-0.061-0.012-0.091-0.018c-0.021,0.064-0.043,0.131-0.064,0.196c-0.331,0.971-0.589,1.965-0.797,2.97
		c-0.217,1.043-0.357,2.097-0.328,3.168c0.021,0.8,0.146,1.581,0.424,2.329c0.323,0.868,0.855,1.564,1.608,2.087
		c0.731,0.507,1.552,0.741,2.409,0.871c0.785,0.119,1.576,0.117,2.364,0.067c0.594-0.035,1.188-0.112,1.775-0.205
		c0.272-0.044,0.537-0.16,0.799-0.261c0.228-0.086,0.352-0.263,0.426-0.509c0.431-1.429,0.875-2.854,1.312-4.281
		c0.029-0.097,0.039-0.199,0.058-0.308c-0.213-0.08-0.408-0.046-0.598-0.046c-2.896-0.003-5.792-0.001-8.688-0.004
		c-0.188,0-0.382,0.033-0.608-0.055c-0.001-0.997-0.001-1.985-0.001-2.975C93.661,34.324,93.661,33.315,93.661,32.304
		 M35.419,33.008c0.094,0.017,0.161,0.038,0.229,0.038c1.455,0.005,2.91,0.018,4.365,0.007c0.79-0.006,1.573-0.108,2.337-0.323
		c0.998-0.281,1.831-0.823,2.407-1.722c0.697-1.086,1.125-2.29,1.219-3.585c0.078-1.083-0.376-1.626-1.132-2.003
		c-0.141-0.071-0.293-0.12-0.442-0.169c-0.656-0.218-1.334-0.311-2.019-0.318c-1.437-0.017-2.875-0.011-4.312-0.012
		c-0.12,0-0.24,0.021-0.388,0.033c-0.729,2.563-1.456,5.12-2.182,7.677C35.468,32.749,35.449,32.871,35.419,33.008 M56.942,21.149
		h0.57c0.931,0,1.861,0.001,2.791-0.002c0.117,0,0.233-0.024,0.38-0.04V20.49V1.637c0-0.108,0.006-0.217-0.002-0.325
		c-0.007-0.102-0.028-0.202-0.048-0.332h-0.601H36.916c-0.123,0-0.246-0.007-0.368,0.003c-0.099,0.007-0.196,0.035-0.316,0.059
		c0,6.634,0,13.242,0.001,19.849c0,0.069,0.017,0.137,0.03,0.235c0.188,0.009,0.359,0.023,0.53,0.023
		c1.615,0,3.23-0.002,4.845-0.003c1,0,1.999,0.008,2.998,0.091c0.772,0.065,1.535,0.172,2.287,0.348
		c0.774,0.181,1.511,0.466,2.175,0.925c0.734,0.507,1.281,1.169,1.603,2.023c0.238,0.63,0.364,1.28,0.379,1.953
		c0.015,0.632-0.023,1.26-0.095,1.89c-0.177,1.56-0.692,2.975-1.614,4.229c-0.988,1.344-2.274,2.285-3.764,2.958
		c-1.909,0.86-3.927,1.188-5.989,1.276c-0.981,0.043-1.965,0.014-2.948,0.02c-0.135,0.001-0.27,0.023-0.393,0.034
		c-0.049,0.175-0.077,0.312,0.013,0.434c0.569,0.076,12.383,0.108,15.487,0.045c0.102-0.003,0.205-0.021,0.339-0.033
		C53.726,31.958,55.315,26.581,56.942,21.149 M65.437,1.028c-0.003,0.244-0.007,0.459-0.007,0.673
		c-0.001,7.043,0.003,14.087-0.004,21.13c-0.001,1.373,0.033,2.744,0.103,4.114c0.075,1.461,0.156,2.921,0.187,4.383
		c0.039,1.86,0.029,3.72,0.043,5.58c0.001,0.139,0.023,0.276,0.036,0.406c0.479,0.081,1.878,0.076,2.308-0.008
		c1.413-2.802,2.964-5.546,4.607-8.234c1.751-2.867,4.71-7.314,5.278-7.923h0.506c1.069,0,2.141,0,3.212,0
		c1.352,0,2.704-0.001,4.055,0.003c0.133,0,0.282-0.051,0.421,0.107c-0.072,0.309-0.146,0.641-0.227,0.972
		c-0.96,3.971-1.92,7.943-2.883,11.915c-0.221,0.909-0.449,1.816-0.666,2.728c-0.033,0.147-0.12,0.303-0.024,0.466
		c0.058,0.011,0.107,0.029,0.158,0.029c1.387,0.002,2.773,0.003,4.16,0c0.082,0,0.165-0.03,0.239-0.045
		c0.026-0.078,0.052-0.127,0.058-0.178c0.147-1.463,0.529-2.869,0.971-4.259c0.468-1.478,1.045-2.909,1.753-4.283
		c0.119-0.232,0.185-0.465,0.168-0.725c-0.006-0.09-0.001-0.181-0.001-0.271c0-8.633,0-17.266,0-25.899
		c0-0.144,0.003-0.289-0.003-0.433c-0.003-0.085-0.022-0.169-0.039-0.282c-0.148-0.006-0.267-0.013-0.386-0.015
		C83.978,0.918,66.067,0.949,65.437,1.028 M29.071,37.324c0.038-0.11,0.085-0.225,0.119-0.343c0.71-2.417,1.415-4.835,2.132-7.249
		c0.114-0.386,0.177-0.766,0.176-1.167c-0.004-8.959-0.003-17.918-0.003-26.876c0-0.127,0.006-0.253-0.002-0.379
		c-0.007-0.102-0.032-0.202-0.053-0.33h-0.652H7.772c-0.141,0-0.282-0.007-0.422,0.003C7.253,0.99,7.156,1.019,7.065,1.037
		C7.012,1.791,7.03,22.164,7.084,22.591c0.23-0.462,0.254-0.984,0.487-1.407c0.06-0.014,0.094-0.029,0.128-0.029
		c1.756-0.002,3.511-0.004,5.267-0.001c0.06,0,0.121,0.036,0.201,0.063c-0.033,0.13-0.057,0.234-0.087,0.335
		c-0.729,2.486-1.46,4.971-2.189,7.457c-0.765,2.607-1.528,5.214-2.293,7.821c-0.044,0.153-0.127,0.3-0.062,0.492
		c0.055,0.014,0.119,0.042,0.184,0.046c0.729,0.04,2.752,0.01,3.128-0.049c-0.045-0.138-0.081-0.272-0.132-0.401
		c-0.509-1.306-1.021-2.611-1.529-3.917c-0.05-0.129-0.081-0.267-0.125-0.414c3.685-3.826,7.354-7.634,11.013-11.432
		c2.281,0,4.527,0,6.773,0.001c0.017,0,0.035,0.008,0.048,0.019c0.011,0.008,0.013,0.025,0.031,0.064
		c-0.05,0.056-0.104,0.124-0.166,0.184c-2.218,2.134-4.437,4.268-6.656,6.4c-1.757,1.689-3.515,3.379-5.27,5.069
		c-0.099,0.096-0.184,0.206-0.265,0.299c0.44,1.083,1.672,3.747,1.913,4.14c0.044,0.011,0.094,0.035,0.144,0.035
		c3.757,0.002,7.514,0.002,11.271,0C28.949,37.367,28.998,37.342,29.071,37.324 M111.332,29.481
		c-0.111,0.013-0.18,0.028-0.247,0.028c-1.545-0.002-3.09-0.006-4.636-0.012c-0.081-0.001-0.162-0.034-0.264-0.056
		c0.063-0.271,0.117-0.516,0.177-0.76c0.118-0.475,0.173-0.956,0.155-1.447c-0.03-0.838-0.396-1.483-1.051-1.961
		c-0.36-0.264-0.765-0.437-1.189-0.562c-0.851-0.253-1.719-0.361-2.601-0.336c-0.385,0.011-0.774,0.022-1.154,0.081
		c-1.454,0.228-2.678,0.928-3.725,1.977c-0.788,0.79-1.381,1.725-1.92,2.702c-0.179,0.324-0.26,0.652-0.258,1.028
		c0.012,2.186,0.006,4.371,0.006,6.557c0,0.109-0.008,0.219,0.003,0.325c0.011,0.102,0.043,0.2,0.062,0.291
		c0.513,0.052,3.138,0.047,3.575-0.007c0.041-0.102,0.096-0.213,0.132-0.331c0.315-1.032,0.626-2.066,0.942-3.098
		c0.041-0.133,0.101-0.26,0.159-0.405h0.545h4.003c1.844,0,3.687-0.001,5.531,0.002c0.169,0.001,0.349-0.051,0.526,0.085
		c-0.027,0.134-0.052,0.274-0.089,0.411c-0.277,1.024-0.557,2.049-0.833,3.075c-0.021,0.08-0.021,0.167-0.034,0.285
		c0.204,0.007,0.377,0.018,0.549,0.018c1.036,0.002,2.072,0.001,3.108,0.001c1.896,0,3.792,0.001,5.688-0.002
		c0.188,0,0.383,0.036,0.565-0.052c0.077-0.247,0.044-0.483,0.044-0.714c0.002-11.615,0.002-23.23,0.002-34.844
		c0-0.163,0.004-0.326-0.005-0.488c-0.004-0.086-0.033-0.172-0.057-0.285c-0.223-0.003-0.432-0.008-0.641-0.008
		c-7.689,0-15.38,0-23.069,0c-0.123,0-0.246-0.004-0.369,0.001c-0.102,0.004-0.212-0.023-0.315,0.097
		c-0.005,0.042-0.022,0.112-0.022,0.181c0.001,7.081,0.003,14.161,0.006,21.242c0,0.03,0.03,0.059,0.061,0.118
		c0.074-0.039,0.152-0.072,0.224-0.117c1.177-0.749,2.452-1.241,3.802-1.531c0.808-0.173,1.628-0.25,2.452-0.311
		c1.498-0.112,2.98-0.045,4.451,0.272c1.142,0.247,2.222,0.664,3.195,1.34c1.564,1.086,2.547,2.563,2.803,4.507
		C111.739,27.685,111.637,28.578,111.332,29.481 M65.513,43.026c0.041-0.05,0.101-0.093,0.122-0.15
		c0.535-1.413,1.139-2.794,1.785-4.156c0.045-0.094,0.07-0.197,0.11-0.312c-0.317-0.079-0.616-0.044-0.91-0.039
		c-0.29,0.005-0.59-0.063-0.869,0.055c-0.043,0.818-0.083,1.61-0.127,2.401c-0.021,0.36-0.057,0.72-0.072,1.08
		c-0.017,0.377-0.02,0.755-0.028,1.132c-0.056,0.029-0.099,0.062-0.031,0.137C65.5,43.118,65.506,43.072,65.513,43.026
		 M86.859,38.414c-0.428-0.064-4.297-0.07-4.806-0.004c-0.274,0.935-0.47,1.904-0.712,2.861c-0.243,0.96-0.457,1.927-0.696,2.888
		c-0.239,0.958-0.45,1.923-0.714,2.891c-0.658,0.066-1.287,0.022-1.915,0.03c-0.649,0.008-1.3,0.002-1.949,0.002h-1.881
		c-0.098-0.177-0.021-0.31,0.018-0.44c0.526-1.833,1.059-3.663,1.59-5.495c0.259-0.899,0.517-1.798,0.783-2.722
		c-0.079-0.022-0.141-0.056-0.202-0.056c-1.388-0.003-2.774-0.003-4.161-0.001c-0.051,0-0.104,0.017-0.19,0.033
		c-1.807,2.874-3.626,5.767-5.428,8.634c-0.458,0.059-4.401,0.063-4.911,0.009c-0.019-0.091-0.051-0.19-0.057-0.292
		c-0.068-1.027-0.135-2.054-0.195-3.081c-0.047-0.793-0.083-1.587-0.126-2.38c-0.045-0.83-0.091-1.659-0.141-2.488
		c-0.007-0.125-0.036-0.248-0.058-0.393c-0.089-0.017-0.172-0.043-0.254-0.043c-1.387-0.002-2.774-0.002-4.161,0
		c-0.052,0-0.104,0.011-0.162,0.018c-0.12,0.116-0.141,0.278-0.185,0.432c-0.737,2.559-1.474,5.117-2.211,7.677
		c-0.05,0.172-0.104,0.342-0.163,0.535c-0.085,0.018-0.168,0.05-0.25,0.05c-1.387,0.003-2.774,0.003-4.161,0.001
		c-0.084,0-0.167-0.023-0.251-0.036c-0.051-0.193,0.021-0.339,0.066-0.49c0.621-2.087,1.241-4.174,1.861-6.261
		c0.184-0.62,0.367-1.241,0.56-1.893c-0.516-0.068-1.006-0.026-1.493-0.033c-0.509-0.008-1.019-0.002-1.528-0.002h-1.475h-1.475
		H44.3h-1.475h-1.528h-1.475h-1.474c-0.51,0-1.019,0.001-1.528,0c-0.489-0.001-0.978-0.004-1.494-0.006
		c-0.104-0.486,0.001-0.957-0.066-1.41c-0.321-0.114-0.33-0.115-0.856-0.042c-0.352,1.094-0.654,2.222-0.985,3.34
		c-0.337,1.139-0.661,2.282-0.992,3.422c-0.326,1.123-0.655,2.245-0.987,3.384c-0.108,0.021-0.207,0.06-0.307,0.061
		c-1.528,0.003-3.055,0.003-4.583,0.001c-0.084,0-0.168-0.023-0.286-0.04c0.161-0.764,0.415-1.472,0.614-2.193
		c0.196-0.712,0.414-1.416,0.621-2.124c0.213-0.726,0.425-1.451,0.638-2.176c0.207-0.707,0.416-1.414,0.634-2.154
		c-0.103-0.024-0.181-0.043-0.258-0.06c-0.017-0.004-0.035-0.001-0.053-0.001c-3.406,0-6.813-0.001-10.219,0
		c-0.085,0-0.171,0.012-0.295,0.021c0.227,0.62,0.514,1.172,0.766,1.739c0.255,0.575,0.517,1.146,0.778,1.718
		c0.26,0.572,0.523,1.144,0.783,1.714c0.261,0.572,0.521,1.145,0.781,1.717c0.259,0.57,0.518,1.142,0.765,1.685
		c-0.054,0.143-0.141,0.153-0.229,0.154c-0.176,0.003-0.352,0.003-0.527,0.003c-1.58,0-3.161,0-4.741-0.001
		c-0.191,0-0.382-0.01-0.594-0.017c-0.603-1.461-1.153-2.923-1.727-4.375c-0.569-1.436-1.131-2.874-1.692-4.301
		c-0.393-0.071-3.504-0.087-4.14-0.021c-0.092,0.157-0.134,0.35-0.189,0.537c-0.742,2.558-1.485,5.114-2.23,7.672
		c-0.044,0.152-0.101,0.303-0.147,0.439c-0.414,0.084-4.014,0.125-5.333,0.063C0.188,47.108,0.108,47.08,0,47.057
		c0.045-0.185,0.077-0.341,0.121-0.491c1.658-5.684,3.318-11.366,4.977-17.05c0.268-0.915,0.524-1.834,0.805-2.744
		c0.13-0.421,0.179-0.84,0.179-1.277C6.078,17.24,6.079,8.983,6.079,0.729V0.061c0.127-0.023,0.226-0.049,0.325-0.055
		c0.14-0.009,0.281-0.003,0.421-0.003H31.74h0.653c0.022,0.127,0.049,0.227,0.055,0.329c0.009,0.144,0.003,0.289,0.003,0.433
		c0,8.057,0,16.114,0,24.169v0.646c0.325-0.711,0.506-1.461,0.728-2.198c0.219-0.723,0.429-1.448,0.646-2.183
		c0.47-0.116,0.948,0.009,1.435-0.086c0.037-0.341,0.016-0.664,0.02-0.985c0.003-0.343,0-0.686,0-1.029v-0.976v-1.029v-0.976v-1.03
		v-0.975v-1.03v-0.975v-1.03v-0.975v-1.03V8.099v-1.03V6.093V5.063V4.087V3.059V2.083c0-0.343,0-0.686,0-1.03V0.058
		c0.127-0.021,0.225-0.046,0.324-0.053c0.122-0.008,0.246-0.002,0.369-0.002c8.322,0,16.645,0,24.968,0
		c0.208,0,0.416,0.008,0.655,0.012c0.019,0.12,0.045,0.22,0.05,0.321c0.008,0.162,0.003,0.325,0.003,0.488
		c0,6.539,0,13.079,0,19.618c0,0.214,0.011,0.427,0.017,0.666c0.315,0.076,0.612,0.033,0.904,0.04
		c0.316,0.008,0.633,0.004,0.948,0.001c0.295-0.002,0.592,0.015,0.917-0.019c0.013-0.117,0.031-0.219,0.035-0.322
		c0.006-0.144,0.002-0.289,0.002-0.433c0-6.558,0-13.115,0-19.673c0.001-0.212,0.01-0.425,0.014-0.597
		c0.05-0.052,0.06-0.068,0.073-0.077c0.015-0.008,0.034-0.012,0.051-0.012c8.621-0.004,17.242-0.009,25.863-0.012
		c0.087,0,0.174,0.012,0.261,0.021c0.016,0.002,0.028,0.02,0.079,0.059c0.008,0.07,0.028,0.172,0.032,0.275
		c0.006,0.163,0.002,0.325,0.002,0.488c0,8.31,0,16.619,0.002,24.929c0,0.212-0.028,0.428,0.03,0.633
		c0.137,0.047,0.167-0.062,0.211-0.125c0.431-0.617,0.887-1.213,1.405-1.755c0.368-0.385,0.757-0.751,1.166-1.156v-3.867v-3.902
		v-3.901V7.854V3.953c0-1.296,0-2.592,0-3.883c0.097-0.031,0.145-0.061,0.192-0.061c8.674-0.002,17.349-0.002,26.021,0
		c0.048,0,0.096,0.031,0.148,0.049c0.017,0.056,0.041,0.106,0.041,0.157c0.002,12.645,0.002,25.29,0,37.936
		c0,0.05-0.023,0.101-0.043,0.174c-0.183,0.072-0.377,0.038-0.563,0.038c-3.336,0.003-6.672,0.002-10.009,0.002h-0.597
		c-0.301,0.909-0.512,1.817-0.765,2.714c-0.259,0.918-0.5,1.841-0.752,2.761c-0.246,0.903-0.495,1.804-0.744,2.71
		c-0.343,0.224-0.732,0.279-1.104,0.358c-0.943,0.203-1.895,0.369-2.855,0.467c-1.012,0.103-2.024,0.216-3.039,0.293
		c-0.664,0.05-1.334,0.031-2,0.069c-0.598,0.035-1.194,0.014-1.787-0.049c-2.082-0.22-4.013-0.882-5.688-2.2
		c-1.625-1.28-2.651-2.964-3.013-5.047C86.994,39.784,86.943,39.117,86.859,38.414"/>
</g>
</svg>
